
<svg viewBox="0 0 24 25" version="1.1" xmlns="http://www.w3.org/2000/svg" xmlns:xlink="http://www.w3.org/1999/xlink" fill="#FFFFFF">

    <g>
        <g>
            <g>
                <g>
                    <path d="M13.0196132,8.73103099 L23.2959415,19.0073593 C24.4675144,20.1789322 24.4675144,22.0784271 23.2959415,23.25 C22.1243687,24.4215729 20.2248737,24.4215729 19.0533009,23.25 L8.77697254,12.9736717 L4.99264069,16.7580035 C3.82106781,17.9295764 1.92157288,17.9295764 0.75,16.7580035 C0.187390865,16.1953944 -0.128679656,15.4323327 -0.128679656,14.6366832 L-0.128679656,3.1746212 C-0.128679656,1.51776695 1.21446609,0.174621202 2.87132034,0.174621202 L14.3333823,0.174621202 C15.9902366,0.174621202 17.3333823,1.51776695 17.3333823,3.1746212 C17.3333823,3.97027067 17.0173118,4.73333241 16.4547027,5.29594155 L13.0196132,8.73103099 Z" id="Rectangle-6" transform="translate(12.022971, 12.151650) rotate(90.000000) translate(-12.022971, -12.151650) "></path>
                </g>
            </g>
        </g>
    </g>
</svg>