<svg xmlns="http://www.w3.org/2000/svg" viewBox="0 0 144 26"><path fill="#91a9ca" d="M36.66.98h3.67c-.01 2.34-.02 4.68-.06 7.03 4.94-3.29 12.41-2.1 15.06 3.53 3.4 6.16-1.52 14.27-8.47 14.46h-.11c-4.91.01-9.69-3.82-9.99-8.86-.29-5.38-.02-10.77-.1-16.16m7.59 9.25c-4.19 1.47-5.34 7.59-1.87 10.41 3.18 3.14 9.14 1.3 10.1-3.02 1.48-4.62-3.76-9.41-8.23-7.39zM96.43.98h3.67c-.08 5.38.19 10.78-.1 16.16-.26 4.78-4.61 8.43-9.21 8.86h-.11c-4.04-.01-8.04-2.35-9.55-6.17-2.19-4.95.52-11.22 5.58-13.08 3.27-1.39 6.79-.28 9.77 1.27-.03-2.35-.04-4.69-.05-7.04m-9 9.5c-4.11 1.89-4.5 8.28-.66 10.67 3.48 2.64 9.1.18 9.57-4.15 1-4.75-4.68-8.95-8.91-6.52zM.67 13.88c-1.79-4.15.79-9.48 5.31-10.3 2.79-.77 5.29.85 7.45 2.39 1.98-1.28 4.06-2.91 6.58-2.52 4.45.22 7.76 5.02 6.54 9.27-1.68 6.02-6.54 11.09-12.37 13.28h-1.23C7.28 24.17 2.79 19.37.67 13.88zm58.18-.82c1.75-6.53 10.73-9.2 15.74-4.64 5.24 4.29 3.16 11.71 3.54 17.58h-3.5c.01-.52.04-1.57.06-2.1-1.9.87-3.83 1.69-5.89 2.1h-.1c-6.56.28-12.1-6.63-9.85-12.94m6.5-2.52c-4.01 1.96-4.36 8.22-.58 10.6 3.83 2.94 9.96-.34 9.71-5.14.2-4.49-5.26-7.79-9.13-5.46zm38.52.25c3.54-6.33 13.77-6.07 17.02.4 3.73 6.09-1.04 14.53-8.1 14.81h-.19c-7.6.44-13.04-8.88-8.73-15.21m6.3-.59c-4.32 1.39-5.5 7.68-1.93 10.51 3.39 3.26 9.55.89 10.19-3.68.93-4.44-4.05-8.62-8.26-6.83zm20.33-3.45c5.78-2.44 12.95 2 13.33 8.25.8 5.61-4.14 11.08-9.78 10.92-5.3.18-10.07-4.62-9.9-9.91-.1-4.03 2.63-7.83 6.35-9.26m.9 3.65c-4.3 1.81-4.74 8.45-.73 10.83 3.85 2.8 9.8-.54 9.56-5.24.16-4.34-4.97-7.64-8.83-5.59z"/></svg>