<svg xmlns="http://www.w3.org/2000/svg" width="296" height="137" viewBox="0 0 296 137"><g><g><path fill="#f3f8ff" d="M278.79 102.074c-.194 0-.382.024-.575.03-2.515-12.396-13.032-21.88-25.925-22.842-4.498-21.542-23.593-37.724-46.472-37.724-3.817 0-7.524.463-11.08 1.313C184.66 17.74 160.105 0 131.391 0 113.176 0 96.64 7.153 84.4 18.783a31.383 31.383 0 0 0-12.58-2.619c-15.467 0-28.32 11.148-30.988 25.846C17.759 45.243 0 65.052 0 89.016c0 26.223 21.257 47.48 47.479 47.48h231.31c9.506 0 17.211-7.706 17.211-17.21 0-9.506-7.705-17.212-17.21-17.212"/></g></g></svg>