<svg xmlns="http://www.w3.org/2000/svg" viewBox="0 0 98 33"><g fill="#91a8c9"><path d="M11.63 4.68c2.7-2.04 5.91-3.99 9.43-3.7 3.08 1.14 1.55 5.82-1.12 6.47-3.13-1.83 5.01-5.18.35-4.98-4.25 1.05-7.05 4.79-9.68 8.03-3.09 4.21-5.91 9.13-5.83 14.51-.08 3.27 3.24 5.37 6.23 5.11 7.38-.54 14.37-4.38 21.89-3.36 3.44.41 6.3 2.56 8.83 4.76-3.52-.68-7.44-2.52-10.61.33-3.84-4.12-9.9-2.98-14.71-1.59-4.16.9-9.06 2.91-12.99.23C.4 28.46.11 24.33.81 21.07 2.19 14.5 6.47 8.83 11.63 4.68zm40.8 5.78c3.56-4.12 7.87-8.35 13.44-9.32 2.74.47 5.47.11 8.21-.03 3.19.54 5.83 2.61 8.64 4.07-.82.87-1.63 1.74-2.45 2.61-3.24-2.13-6.45-4.55-10.39-5.2-.54 4.05-2.14 8.39-5.85 10.54-.96.64-2.12.46-3.06-.11-.36-4.93 3.95-8.11 7.12-11.14-5.32 1.4-9.14 5.64-12.37 9.84-3.11 4.21-6.07 8.92-6.5 14.26-.39 2.02 1.7 4.36 3.77 3.24 4.26-2.15 6.86-6.85 7.16-11.53-2.85.08-3.87 2.78-4.73 5.03-1.38 1.02-2.77 2.04-4.15 3.06.95-3.98 2.9-9.05 7.61-9.56 2.38.02 2.3 3.15 1.72 4.77-1.51 4.65-4.88 9.19-9.68 10.73-3.44 1.08-6.23-2.5-5.92-5.68.43-5.9 3.87-11.06 7.43-15.58m9.12 2.32c4.47-.68 6.6-5.38 7.28-9.36-3.84 1.63-6.48 5.33-7.28 9.36z"/><path d="M84.37 4.43c1.77-1.54 3.75-3.31 6.27-3.15.22 1.68.05 3.34-.52 4.98 2.45-1.39 4.83-2.89 7.23-4.36a18.648 18.648 0 0 1-9.91 7.4c-2.84 5.32-7.81 9.07-12.24 13.01-1.43 2.02-1.77 4.56-2.2 6.94 2.79-.78 3.89-3.65 5.44-5.78 1.87-2.95 4.2-5.7 7.39-7.28 1.95.43 3.95.5 5.95.49-2.32 4.21-5.01 8.23-6.92 12.66 2.62-1.53 4.21-4.15 6.48-6.07-2 3.51-4.55 8-8.94 8.59-.29-.48-.89-1.45-1.19-1.93-1.44.66-2.9 2.72-4.61 1.6-.26-.59-.78-1.75-1.04-2.34-1.42 1.02-3 3.56-5.02 2.33-2.63-2.11 1.35-5.79-.38-7.74-3.27 2.58-5.04 8.24-9.93 8-2.19-1.54-.94-4.6-.13-6.58 1.92-3.76 4.64-7.8 8.91-9.01 3.24-.15 1.72 3.64 2.17 5.63.19-.02.56-.05.75-.06 3.19-6.38 7.06-12.56 12.44-17.33m-.14 3.31c.43-.29 1.29-.88 1.72-1.17l3.41-.39c.2-1.33.39-2.66.59-3.99-2.13 1.57-4.49 3.13-5.72 5.55m-.99 1.12c-2.97 3.44-5.15 7.46-7.23 11.48 3.68-2.71 6.64-6.2 9.81-9.45-.85-.69-1.68-1.4-2.58-2.03m-14.2 14.1c.57-1.75 1.3-3.53 1.16-5.42-3.5-.29-4.21 4.15-1.16 5.42m10.63 6.47c4.05-2.88 5.95-7.68 8.22-11.91-4.54 2.06-7.65 7.04-8.22 11.91m-17-.24c2.82-.69 4.32-3.23 5.86-5.42-.73-.62-2.21-1.85-2.95-2.46-1.47 2.41-2.96 4.94-2.91 7.88zM19.18 9.12c1.29-.78 3.69-1.02 4.02.95-.12 1.61-.34 3.2-.66 4.78 3.42-1.97 5.87-7.18 10.4-5.87 1.57.95.92 3.33 1.63 4.86 1.34-2.08 3-4.19 5.42-5.07 2.01-.1 4 .24 6.01.28-2.35 4.12-4.97 8.11-6.91 12.45 2.51-1.45 4.21-3.85 6.35-5.74-1.86 3.59-4.52 7.26-8.48 8.65l-1.52-2.04c-1.49.85-3.24 2.86-4.94 1.31-.13-.69-.39-2.08-.51-2.78-2.12 1.59-4.95 4.62-7.79 2.74-2.34-2.66.09-6 .76-8.84-3.4 3.11-5.16 8.33-10.05 9.54-2.58-.28-2.42-3.37-1.79-5.21 1.39-4.12 4.26-7.86 8.06-10.01m.11 2.12c-1.55 1.82.64 2.74 1.88 3.76.46-1.76.81-3.54 1.05-5.34-1.15.27-2.13.8-2.93 1.58m14.45 10.44c4.51-2.49 6.18-7.84 8.53-12.11-4.48 2.39-7.43 7.25-8.53 12.11M30 10.72c-2.13 3.29-5.52 6.56-5.07 10.79 4.18 1.25 6.26-4.5 8.93-6.8-1.18-.72-5.55-1-2.29-2.91-.52-.36-1.05-.72-1.57-1.08m-12.64 2.82c-1.35 2.51-3.09 5.06-2.68 8.06 2.72-1.03 4.35-3.51 5.93-5.8-1.09-.75-2.17-1.5-3.25-2.26zm30.77-4.59l2.95.04c-.51.86-1.01 1.73-1.52 2.59l-2.82.08c.46-.91.92-1.81 1.39-2.71z"/></g></svg>