<svg xmlns="http://www.w3.org/2000/svg" viewBox="0 0 117 49"><g fill="#90a8c9"><path d="M15.23 0h.45c6.83 6.93 7.8 17.69 5.39 26.72-1.22 4.24-3.56 9.05-8.14 10.34-2.56.53-3.99-2.14-5.42-3.74-1.45-.01-2.92.1-4.35-.2C.12 30.38.03 25.88.34 22.09c.81-6.88 2.9-14.53 9.06-18.55-4.26 7.69-7.74 16.39-6.23 25.35.13 1.99 2.07 2.53 3.68 2.94-.01-5.42-1.64-11.55 1.65-16.38 1.09-1.51 3.84-3.58 5.04-1.08 2.47 5.93-.6 12.24-4.02 17.1 1.3.69 2.6 2.49 4.15 1.28 3.18-2.11 4.33-6.12 5.17-9.65 1.31-7.04 1.27-15.12-3.16-21.12-.11-.49-.33-1.48-.45-1.98M9.28 28.19c2.19-4.21 3.37-9.08 2.06-13.77-2.2 4.23-2.08 9.14-2.06 13.77zm32.2-20.54c-.2-4.06 4.43-4.58 7.48-4.69 6.47.21 12.09 4.19 16.48 8.65 4.53 5.15 8.12 12.78 4.8 19.49-2.39 5.23-8.78 7.03-14.03 5.58-.57.56-1.7 1.68-2.26 2.25-.87-5.95-7.95-8.32-8.24-14.58 2.1-1.91 4.55-3.36 7.21-4.34.22-2.77.3-5.63 1.5-8.19.95 2.52 1.12 5.19 1.17 7.85 3.32.06 7.81.64 8.91 4.39.8 2.33-1.3 4.24-3.49 4.37.41-.84 1.24-2.52 1.65-3.36-2.3-.87-4.69-1.51-7.1-2.04-.11 3.5-.04 7 .13 10.49 3.64.59 7.81.53 10.58-2.27 3.83-3.56 2.51-9.65.09-13.64C61.53 9.86 52.23 4.34 42.92 5.97c.37.59 1.1 1.77 1.47 2.35-.73-.16-2.19-.5-2.91-.67M46.51 25c.77 3.34 3.52 5.43 6.17 7.28.17-2.96.25-5.91.27-8.87-2.15.48-4.3 1.02-6.44 1.59zm25.6-17c1.62-.73 3.37-2.38 5.29-1.6 1.5 1.13 3.74 2.33 3.13 4.58-.76 4.45-4.91 7.16-9.27 6.93-.57-2.79-.99-5.63-.44-8.47.66.5 1.33 1.01 1.99 1.52l-1.3 1.14.75.73c.69-1.03 1.37-2.06 2.06-3.09-.75-.58-1.47-1.16-2.21-1.74m1.54 7.16c3.07-.31 6.61-2.63 4.97-6.15-2.32 1.44-3.96 3.64-4.97 6.15zm-46.68 1.23c1.95 6.21 2.62 12.82 2.07 19.29-1.22-1.51-1.67-3.38-2.06-5.24l-2.64-.06c-.51 1.98-1.01 3.97-1.64 5.92-2.43-2.39-.96-5.76-.99-8.71 2.03-3.6 3.1-7.66 5.26-11.2m-.63 7c-1.15.62-1.78 3.4-.19 3.78 1.4-.49 1.83-3.44.19-3.78zm3.74 3.59c.51-3.51.76-7.29 2.99-10.22.49 4.49-1.01 8.85-1.25 13.31 1.48-.69 2.95-1.38 4.42-2.06-.07 2.95-1.75 5.36-4.32 6.72-2-2.1-2.36-5-1.84-7.75z"/><path d="M34.63 17.59c1.29 1.06 2.57 2.12 3.88 3.15 1.47-1.38 2.9-3 5.05-3.28-.79 1.19-1.67 2.32-2.51 3.47l1.52.08-.25-1.41c.55.08 1.64.22 2.19.3-.1 2.78-1.78 4.53-4.38 5.07-.64 4.83.11 9.75-.77 14.54-4-4.33-2.24-10.6-1.49-15.79-2.05-1.44-3.29-3.58-3.24-6.13zm58.23-.53c3.13 3.87 3.99 9.1 3.44 13.94-.16 1.55-1.42 2.64-2.23 3.87-1.79-2.81-2.97-5.92-4.13-9.02-.21 3.38-.26 6.79-.9 10.13-3.07-4.54-1.22-10.55.34-15.37 1.93 3.05 3.3 6.39 4.91 9.59.02-4.43-1.25-8.72-1.43-13.14zM73.7 19.41c2.63 4.88 1.32 10.91 1.44 16.26-.48-.32-1.42-.96-1.89-1.28-.66-4.95-.43-10.06.45-14.98z"/><path d="M76.91 26.7c-3.25-5.58 7.95-9.62 10.19-4.61-3.01 1.26-6.42 1.08-9.37 2.56 2.5.81 5.48.41 7.71 1.95 2.64 2.86.91 8.76-3.43 8.58-3.52.28-5.35-3.27-5.28-6.33 2.42-1.05 5-.77 7.4.19-.59.69-1.18 1.38-1.77 2.08-1.7-.58-3.42-1.13-5.16-1.6 1.23 4.38 6.41 1.83 8.48-.44-2.68-1.6-5.79-1.79-8.77-2.38zm20.34-5.91c2.53-.5 5.09-1.36 7.7-1.03.53.89 1.03 1.8 1.48 2.73-2.01.58-4.43.36-5.93 2.09 1.46.81 5.04.47 3.6 3.04-1.28.25-2.56.46-3.85.64-.14.68-.41 2.04-.55 2.72 1.58-.28 3.17-.49 4.77-.62 1 3.34-3.24 4.68-5.65 5.52-2.3-2.8-1.33-6.28-.75-9.48.36-.67 1.08-2 1.44-2.67-.73-1-1.49-1.98-2.26-2.94zm8.73 9.35c.31-3.91 1.84-7.61 4.2-10.72-.66 3.74-1.34 8.03-4.2 10.72zm.43-.09c3.36-2.48 4.98-6.52 7.91-9.42 4.13 5.49 1.18 14.16-5.43 15.98-.9 4.11-1.63 8.25-2.34 12.39h-.53c-3.55-5.9 1.32-12.6.39-18.95m8.28-6.13c-1.98 2.6-3.38 5.57-4.38 8.66 3.49-1.45 4.95-5.07 4.38-8.66z"/></g></svg>