<svg xmlns="http://www.w3.org/2000/svg" viewBox="0 0 136 28"><path fill="#91a9ca" d="M5.05 2.06C7.24.09 10.44.79 13.12.59v4.42c-1.26.08-2.51.2-3.75.38-.24 1.28-.41 2.57-.49 3.88 1.41.01 2.83.02 4.25.02-.16 1.49-.33 2.97-.49 4.46-1.2-.01-2.4-.01-3.6-.01-.01 4.4-.01 8.79.01 13.19-1.8.01-3.61.01-5.41.01-.01-4.39 0-8.78-.01-13.18H.89v-4.5c.67 0 2.02-.01 2.69-.01.19-2.41-.38-5.28 1.47-7.19zM62.06 2c1.79-.3 3.58-.6 5.38-.89-.01 2.81-.02 5.61-.06 8.41 3.04-.4 6.69-1.23 9.2 1.03 1.71 2.05 1.17 4.97 1.33 7.44-.01 2.88.07 6.67-3 8.11-4.03 1.81-8.6.87-12.83.43-.04-8.18.01-16.36-.02-24.53m5.39 12.05c0 2.92-.01 5.83.03 8.75 1.62-.29 4.25.42 4.83-1.71.32-2.45.09-4.93-.12-7.39-1.59-.08-3.18.06-4.74.35zM114.41 2c1.8-.3 3.6-.59 5.41-.89 0 5.35-.01 10.69.02 16.03 1.68-2.63 3.34-5.28 5.04-7.91l5.8.03c-1.8 2.87-3.62 5.74-5.43 8.61 1.81 3.01 3.62 6.02 5.42 9.04-1.92.03-3.83.04-5.75.08-1.7-2.72-3.33-5.49-5.05-8.19-.07 2.71-.05 5.42-.05 8.13-1.81.01-3.61.01-5.41 0 0-8.31-.01-16.62 0-24.93zM14.96 9.29c3.94.37 9.52-1.33 12.03 2.68 1.4 4.86.41 10.06.69 15.05-1.76-.09-3.65.17-5.25-.76-2.09.49-4.27 1.3-6.43.66-4.05-1.07-4.66-8.03-.64-9.5 2.25-.66 4.64-.42 6.95-.52-.08-.71-.23-2.13-.3-2.84-2.49-.29-4.99-.27-7.49-.3.15-1.49.3-2.98.44-4.47m3.15 11.66c-.64 2.95 2.55 2.49 4.23 1.64l-.08-2.03c-1.39.06-2.8.02-4.15.39zm11.98-7.79c2.01-4.85 8.33-4.58 12.58-3.5.87 1.15.22 2.94.47 4.32-2.55-.09-5.5-1.24-7.83.22-.71 2.46-.6 5.14-.09 7.62 2.19 1.79 5.36.43 7.91.37a83.45 83.45 0 0 1-.17 4.47c-4.05.52-9.36 1.47-12.18-2.32-1.87-3.34-1.5-7.59-.69-11.18zm17.25-2.88c3.05-1.74 7.19-1.73 10.25 0 3.13 2.02 2.45 6.2 2.58 9.38-3.43 0-6.85-.02-10.28.03.24.95.6 1.84 1.08 2.69 2.88.71 5.85.1 8.74-.19-.03 1.46-.03 2.91-.05 4.37-3.86.47-8.11 1.38-11.75-.49-2.55-1.37-3.25-4.47-3.17-7.13-.03-2.99-.27-6.81 2.6-8.66m2.53 5.8c1.77-.04 3.53-.12 5.29-.22-.65-.91-.7-2.88-2.22-2.74-1.97-.64-2.81 1.45-3.07 2.96zM83.5 9.66c3.52-1.08 8.29-1.07 10.69 2.18 1.62 2.74 1.15 6.13 1.05 9.17-.23 8.33-15.45 8.3-15.67-.03-.26-3.97-.73-9.71 3.93-11.32m1.91 4.6c-.98 2.05-.51 4.53-.38 6.73.24 2.1 3.46 2.14 4.59.76.43-2.42.49-4.98-.04-7.39-1.1-1.02-3.09-1.25-4.17-.1zm15.98-4.75c3.69-.99 8.97-.74 10.76 3.26 1 3.14.79 6.61.27 9.83-1.48 5.05-8.27 5.4-12.32 3.52-3.7-1.96-3.24-6.69-3.13-10.22-.08-2.8 1.58-5.7 4.42-6.39m1.31 5.03c-.31 2.54-1.71 7.96 2.14 8.11 3.6.17 2.39-4.42 2.51-6.68.47-2.59-3.61-3.31-4.65-1.43zm29.22 10.45c-.23-2.55 2.9-2.1 4.08-.79v2.05c-1.43.64-4.3 1.22-4.08-1.26z"/></svg>