<svg xmlns="http://www.w3.org/2000/svg"  viewBox="0 0 98 26"><g fill="#91a9ca"><path d="M24.76 7.28c-2.03-2.44.19-6.36 3.21-6.43 3-.22 3.63 3.2 5.01 5.12l.28-4.44c2.26-.01 4.53-.01 6.79-.01l-4.02 22.55h-6.62c1.01-5.58 1.91-11.19 3.03-16.75-.43-.68-.85-1.35-1.28-2.02-.08 3.21-4.57 4.37-6.4 1.98zm12.98 16.81c1.32-7.53 2.64-15.05 3.97-22.57h6.67c-.78 4.19-1.4 8.41-2.39 12.56 2.18-3.29 5.88-5.92 10.02-5.1 2.7.13 4.59 2.15 6.14 4.14l.56-3.15c3.58.05 2.51-4.33 3.38-6.69 2.21-.01 4.43-.01 6.65-.01-.4 2.21-.79 4.43-1.14 6.64 3.87.43 2.88-4.16 3.74-6.63 2.21-.01 4.43-.01 6.65-.01l-1.11 6.36c.57.01 1.7.04 2.26.05l-.69 2.88c3.04-3.44 8.32-4.97 12.4-2.43 2.71 1.54 2.96 4.9 2.99 7.68-3.58.1-7.16.06-10.74.11.94.81 1.32 3.62 3.04 2.14 2.16-1.35 4.61-.05 6.86.21-1.65 1.98-3.51 4.07-6.17 4.57-3.61 1.05-7.94-.67-9.34-4.27-.59-1.97-.54-4.07-.88-6.09-1.57 2.96-1.67 6.37-2.31 9.59h-6.68c.54-2.96 1.05-5.93 1.57-8.9l-2.58.04-1.56 8.86h-6.67c.55-2.95 1.07-5.91 1.59-8.87-.4-.03-1.21-.1-1.61-.13-.07.7-.22 2.11-.3 2.82-3.51-.01-7.03-.03-10.54.05.86 1.04 1.73 3.56 3.55 2.03 2.07-1.13 4.32.03 6.44.3-2.31 3.36-6.43 5.76-10.58 4.58-3.14-.67-4.91-3.6-5.82-6.44-.17 1.88-.4 3.76-.66 5.63-2.24.02-4.48.03-6.71.05m49.92-8.91c1.57-.02 3.13-.03 4.7-.07-.95-2.76-3.5-1.99-4.7.07zM5 5.1C10.1.97 19.06 1.64 22.14 7.94c-2.14.84-4.29 1.68-6.43 2.52-1.4-.81-2.88-2.34-4.63-1.42-2.76 1.34-3.34 5.13-2.68 7.84.94 2.51 4.63 2.45 5.76.04l-3.24-.32c.28-1.58.56-3.16.83-4.74h9.72c-.61 3.39-1.23 6.77-1.79 10.17-4.81 2.63-11.36 3.91-16.04.36C-1.24 17.89-.25 8.95 5 5.1z"/><path d="M21.09 24.07c.83-4.81 1.67-9.61 2.5-14.42 2.22 0 4.44 0 6.66.01-.84 4.8-1.69 9.61-2.54 14.41h-6.62z"/></g></svg>