<svg xmlns="http://www.w3.org/2000/svg"  viewBox="0 0 115 37"><g fill="#91a9ca"><path d="M13.4 0h2.97c3.17.39 6.04 1.87 8.66 3.62-.92.96-1.85 1.91-2.78 2.87-4.25-3.05-10.52-3.58-14.5.2-5.09 4.19-4.4 13.02 1.24 16.4 5.53 3.96 14.55 1.05 15.66-5.99-3.27-.09-6.55-.1-9.82-.11v-3.87c4.57 0 9.14-.02 13.71.02.03 3.94-.34 8.24-3.2 11.24-5.15 5.74-14.85 5.83-20.45.7C2.07 22.71.51 19.19 0 15.59v-2.23C.55 6.37 6.51.69 13.4 0zm78.41.95h4.12c.01 9.07.01 18.14 0 27.21-1.37 0-2.75 0-4.12-.01-.01-9.06-.01-18.13 0-27.2zm-55.38 9.63c6.65-2.42 14.18 4.44 12.03 11.29-1.59 7.05-11.68 9.37-16.28 3.85-4.68-4.67-2.12-13.51 4.25-15.14m.12 4.1c-3.75 2.15-3.37 8.39.62 10.04 3.64 1.82 7.99-1.76 7.47-5.63-.06-3.86-4.8-6.66-8.09-4.41z"/><path d="M56.51 10.74c6.74-2.87 14.81 4.15 12.48 11.22-1.61 6.85-11.29 9.2-15.99 4.05-4.82-4.46-2.72-13.32 3.51-15.27m.88 3.78c-4.14 2.03-3.72 8.86.65 10.33 3.65 1.53 7.71-2.1 7.15-5.86-.14-3.67-4.54-6.42-7.8-4.47zm15.13-.11c2.53-4.15 8.2-5.48 12.2-2.6.21-.26.65-.77.87-1.02.84.02 2.54.05 3.38.07-.14 6.38.3 12.79-.2 19.15-.37 3.43-3.19 5.84-6.25 6.99h-3.7c-3.22-.39-5.62-2.62-7.19-5.31.85-.35 2.55-1.04 3.4-1.39 1.57 1.62 3.36 3.83 5.93 3.06 3.36-.2 4.13-3.77 4.49-6.46-2.3.95-4.73 2.39-7.31 1.62-6-1.19-9.51-9.12-5.62-14.11m6.55-.39c-4.5 1.15-5.28 7.96-1.42 10.35 2.84 2.06 6.99-.05 7.63-3.33 1.18-3.65-2.26-8.17-6.21-7.02zm20.25 10.59c-4.02-5.36.02-14.01 6.72-14.29 4.3-.54 7.66 2.97 8.95 6.75-4.23 1.93-8.61 3.53-12.82 5.49 2.47 3.33 6.9 3.06 9.73.36 1.02.54 2.05 1.04 3.1 1.52v.36c-.02-.05-.06-.14-.09-.19-3.58 5.26-12.13 5.44-15.59 0m2.21-5.33c3.01-1.13 5.99-2.35 8.93-3.67-1.49-1.26-3.38-2.39-5.37-1.48-2.41.52-3.08 3.08-3.56 5.15z"/></g></svg>