<svg xmlns="http://www.w3.org/2000/svg" width="19" height="25" viewBox="0 0 19 25"><g><g><path fill="#fff" d="M16.124 21.651A.924.924 0 0 0 15.26 21H1.33c-.444 0-.825.339-.904.805l-.416 2.447a.687.687 0 0 0 .022.335c.087.256.31.413.549.413h15.822c.119 0 .237-.032.336-.103a.645.645 0 0 0 .226-.727z"/></g><g><path fill="#fff" d="M12.593 5.525h-.794c-.322 0-.583-.235-.583-.524 0-.289.26-.523.583-.523h.794c.322 0 .583.234.583.523 0 .29-.26.524-.583.524zm6.309 3.405L14.408 2.83l.865-2.117a.492.492 0 0 0-.119-.542.624.624 0 0 0-.588-.15L10.33 1.105c-.414-.007-1.97.022-3.694.737-1.823.756-4.187 2.448-5.095 6.214-1.253 5.2-.033 9.168.724 10.944h12l1.071-.97a.491.491 0 0 0 .078-.659c-.988-1.39-3.319-4.89-4.22-7.067.33.102.704.168 1.1.15a2.72 2.72 0 0 0 1.531-.556l1.645.993a2.321 2.321 0 0 0 1.73.26c.59-.143 1.085-.507 1.358-1.002l.381-.69a.485.485 0 0 0-.036-.529z"/></g></g></svg>