<svg xmlns="http://www.w3.org/2000/svg" width="142" height="20" viewBox="0 0 142 20">
	<g>
		<g>
			<g>
				<path fill="#fff" d="M31.724 1c3.64 0 5.696 2.17 5.696 5.119 0 1.956-1.16 3.537-2.716 4.073 1.82.456 3.296 2.144 3.296 4.502C38 17.776 35.732 20 32.225 20H25V1zm-.559 7.852c1.659 0 2.659-.938 2.659-2.385 0-1.447-.921-2.358-2.685-2.358h-2.553v4.743zm.375 8.066c1.766 0 2.821-.938 2.821-2.465 0-1.5-.95-2.546-2.769-2.546h-3.006v5.011z"/>
			</g>
			<g>
				<path fill="#fff" d="M42 0c-1.098 0-2 1.005-2 2.256 0 1.195.902 2.2 2 2.2 1.122 0 2-1.005 2-2.2C44 1.006 43.122 0 42 0zm-1.61 20h3.244V6.63H40.39z"/>
			</g>
			<g>
				<path fill="#fff" d="M51.555 19H48V6.335h3.448v1.57C52.249 6.592 53.826 6 55.243 6 58.503 6 60 8.24 60 11.02V19h-3.554v-7.388c0-1.416-.722-2.523-2.432-2.523-1.55 0-2.46 1.158-2.46 2.626z"/>
			</g>
			<g>
				<path fill="#fff" d="M77 13c0 4.05-3.012 7-7 7s-7-2.95-7-7c0-4.077 3.012-7 7-7s7 2.923 7 7m-3.609-.005c0-2.491-1.627-3.75-3.391-3.75s-3.391 1.259-3.391 3.75c0 2.464 1.627 3.75 3.391 3.75s3.391-1.259 3.391-3.75"/>
			</g>
			<g>
				<path fill="#fff" d="M83.216 6.868H86v3.106h-2.784v5.42c0 1.132.562 1.5 1.631 1.5.45 0 .956-.052 1.153-.105v2.895c-.337.132-1.013.316-2.11.316-2.7 0-4.387-1.5-4.387-4V9.974H77V6.868h.703c1.462 0 2.138-.894 2.138-2.052V3h3.375z"/>
			</g>
			<g>
				<path fill="#fff" d="M97 9.565a5.419 5.419 0 0 0-1.067-.105c-1.813 0-3.386.864-3.386 3.643V19H89V6.105h3.44v1.913C93.24 6.314 95.053 6 96.173 6c.294 0 .56.026.827.052z"/>
			</g>
			<g>
				<path fill="#fff" d="M103 12.02l3.292-.484c.762-.108 1.007-.484 1.007-.94 0-.942-.734-1.72-2.258-1.72-1.579 0-2.45.994-2.558 2.149l-3.21-.672C99.49 8.284 101.421 6 105.012 6c4.246 0 5.824 2.365 5.824 5.025v6.503c0 .698.081 1.639.163 2.096h-3.32c-.082-.35-.136-1.075-.136-1.586-.68 1.048-1.959 1.962-3.945 1.962C100.74 20 99 18.092 99 16.023c0-2.365 1.769-3.681 4-4.004m4.3 2.257v-.59l-3.021.456c-.925.134-1.66.645-1.66 1.666 0 .78.572 1.532 1.742 1.532 1.523 0 2.938-.726 2.938-3.064"/>
			</g>
			<g>
				<path fill="#fff" d="M126.89 17.256c0 .896.055 1.874.11 2.418h-3.486a9.112 9.112 0 0 1-.137-1.549c-.604 1.06-1.977 1.875-3.789 1.875-3.843 0-6.588-2.99-6.588-7.038 0-3.913 2.663-6.984 6.478-6.984 2.334 0 3.432.951 3.816 1.658V0h3.596zm-3.541-4.316c0-2.395-1.455-3.728-3.322-3.728-1.866 0-3.349 1.36-3.349 3.755 0 2.394 1.428 3.81 3.35 3.81 1.866 0 3.321-1.416 3.321-3.837z"/>
			</g>
			<g>
				<path fill="#fff" d="M141.812 15.816c-.67 2.28-2.76 4.184-6.004 4.184-3.618 0-6.808-2.602-6.808-7.054C129 8.736 132.11 6 135.487 6 139.56 6 142 8.602 142 12.84c0 .509-.054 1.045-.054 1.099h-9.435c.08 1.743 1.555 3.003 3.324 3.003 1.662 0 2.573-.83 3.002-2.011zm-3.323-4.318c-.054-1.314-.912-2.601-2.949-2.601-1.85 0-2.868 1.394-2.948 2.601z"/>
			</g>
		</g>
		<g>
			<g>
				<path fill="#fff" d="M0 1v18l.198-.177 5.922-5.298 5.095-7.975.147-.23.231-.15L18 1z"/>
			</g>
			<g>
				<path fill="#fff" d="M12.143 6.493L7 14.597 1 20h18V2z"/>
			</g>
		</g>
	</g>
</svg>