<svg xmlns="http://www.w3.org/2000/svg" viewBox="0 0 146 32"><g fill="#91a9ca"><path d="M.18.64h14.8v14.75H.18C.17 10.47.17 5.56.18.64zM16.5 15.39V.64h14.82v14.75H16.5zm114.77-3.38c.6-2.1.5-5.04 2.89-6.02 1.7-.96 3.63-.5 4.84 1.02-2.61.68-4.35 2.35-4.61 5.06l5.12.06c.01-1.02.02-2.03.04-3.04 1.05-.31 2.1-.62 3.15-.92 0 1.3-.01 2.6-.01 3.91.83.03 2.48.08 3.31.11v2.43l-3.34.12c.02 2.68.06 5.36.16 8.05.8.12 2.39.37 3.18.5v2.29c-2.04.03-5.1.69-6.04-1.75-.77-2.98-.37-6.1-.46-9.14-1.55 0-3.1.01-4.65.01v10.74c-.81 0-2.43 0-3.23.01-.01-3.57-.01-7.14 0-10.71l-2.18-.08c-.02-.6-.07-1.79-.1-2.39.48-.06 1.45-.19 1.93-.26zM40.61 6.88h4.6c1.85 4.66 3.78 9.29 5.53 13.99 1.75-4.69 3.76-9.29 5.62-13.95 1.48-.03 2.96-.05 4.44-.07.01 6.19-.01 12.38.02 18.57-.82.01-2.44.03-3.25.05 0-4.93-.06-9.87.08-14.79-1.98 4.76-3.51 9.77-6.01 14.28-.44.25-1.3.76-1.73 1.01-2.24-5.01-4.3-10.09-6.32-15.19.1 4.88.05 9.77.06 14.66-.76 0-2.28.01-3.04.01V6.88zm23.26-.01c1.93-1.43 4.75.82 2.98 2.8-1.94 1.47-4.4-.72-2.98-2.8zm-.06 5.24h3.15v13.34c-.78 0-2.36-.01-3.15-.01V12.11zm8.94.47c2.04-1.09 4.42-.64 6.63-.61.08.79.26 2.36.35 3.15-1.79-.3-3.88-1.29-5.55-.07-3 1.94-2.23 7.95 1.73 8.07 1.06-.17 3.18-.5 4.25-.66-.13 3.85-4.73 3.79-7.38 2.72-5-2.16-4.82-10.32-.03-12.6zm9.18-.47h3.19l-.22 1.55c1.41-.95 2.97-1.65 4.61-2.1.1.75.32 2.26.42 3.02-1.53.42-3.87-.05-4.43 1.89-.75 2.93-.3 6.01-.41 9-1.06-.02-2.11-.03-3.16-.05V12.11zm11.47.42c3.84-1.99 9.71-.16 10.13 4.6 1.31 4.97-3.41 9.92-8.45 8.51-6.22-.81-7.04-10.57-1.68-13.11m.91 2.82c-2.26 2.46-1.32 8.14 2.73 7.84 3.1-.02 3.78-3.74 3.15-6.13-.41-2.65-4.08-3.55-5.88-1.71zm10.9-.25c.8-3.58 5.14-3.44 8-3.14.04.72.13 2.15.18 2.86-1.92-.12-4.55-1.41-5.4 1.17 1.74 1.27 3.83 2.04 5.43 3.51 1.28 1.78.57 4.55-1.4 5.51-2.08 1.21-4.54.55-6.77.3-.07-.75-.19-2.25-.26-3 1.79.45 6.46 2.26 5.71-1.03-2.2-1.66-6.42-2.54-5.49-6.18z"/><path d="M120.1 12.08c4.04-1.42 9.14 1.28 9.02 5.86.89 5.01-4.27 9.17-9.01 7.6-6.38-1.34-6.29-12.04-.01-13.46m.15 2.9c-3.05 2.27-1.74 9.05 2.74 8.15 3.04-.43 3.33-4.34 2.5-6.66-.71-2.1-3.52-2.64-5.24-1.49zM.18 16.92c4.93-.01 9.86 0 14.8-.01v14.75H.18c-.01-4.91-.01-9.83 0-14.74zm16.32 0c4.94-.01 9.88-.01 14.82 0v14.75c-4.85.39-9.87-.82-14.61.33h-.45c.36-5.02.24-10.06.24-15.08z"/></g></svg>