<svg xmlns="http://www.w3.org/2000/svg" viewBox="0 0 97 27"><path fill="#91a9ca" d="M.85.86h3.82c1.73 4.81 3.46 9.64 5.2 14.45.02-4.82 0-9.63.01-14.45h4.02c.01 8.01 0 16.03 0 24.05-1.46.16-2.93.32-4.39.49-1.56-4.44-3.09-8.88-4.64-13.32-.01 4.63 0 9.26 0 13.88-1.34.19-2.68.37-4.03.56 0-8.56 0-17.11.01-25.66zm16.91 0c3.71-.01 7.42-.01 11.14 0v4c-2.38 0-4.75 0-7.13.01.01 1.79.01 3.58 0 5.38l5.41-.03c.01 1.31.01 2.63 0 3.95-1.8.02-3.61.05-5.41.07v5.97c2.38-.16 4.75-.32 7.13-.47v3.97c-3.72.23-7.43.5-11.15.82 0-7.89 0-15.78.01-23.67zm13.7 3.99c0-1.33.01-2.66.01-3.99 4.13 0 8.27-.01 12.4 0v4c-1.39 0-2.79 0-4.18.01-.01 6.12 0 12.25 0 18.38-1.35.05-2.69.1-4.03.14-.01-6.17 0-12.35 0-18.52-1.4-.01-2.8-.01-4.2-.02zm14.98 18.3c0-7.43 0-14.86.01-22.29 3.73-.01 7.46-.01 11.19 0 0 1.33 0 2.66.01 4-2.4 0-4.79 0-7.19.01v5.15c1.81.01 3.63.01 5.44.01v3.96c-1.81 0-3.62.01-5.44.01.01 3.05 0 6.1 0 9.16-1.34 0-2.68-.01-4.02-.01zM60.21.85c1.34-.01 2.68-.01 4.02 0 .01 6.23-.01 12.46.01 18.69 2.29.12 4.58.25 6.86.38.01 1 .01 2.98.01 3.97-3.63-.22-7.26-.41-10.9-.54V.85zm14.21 23.29c0-7.76-.01-15.52 0-23.29 1.01.01 3.01.01 4.02.01 0 7.87 0 15.74-.01 23.62-1.34-.12-2.67-.23-4.01-.34zM81.85.86h4.34l2.61 6.72c.96-2.24 1.93-4.48 2.9-6.73 1.47.01 2.94.01 4.41.01-1.73 4.05-3.49 8.09-5.22 12.14 1.74 4.51 3.49 9.01 5.21 13.52-1.53-.22-3.07-.43-4.61-.65-.95-2.52-1.92-5.03-2.9-7.54-.98 2.29-1.96 4.57-2.94 6.85-1.41-.14-2.83-.28-4.24-.43 1.7-3.95 3.4-7.89 5.09-11.84-1.55-4.02-3.11-8.03-4.65-12.05z"/></svg>