<svg xmlns="http://www.w3.org/2000/svg"><symbol id="horse" viewBox="0 0 18 19"><path fill="#fff" d="M12.593 5.525h-.794c-.322 0-.583-.235-.583-.524 0-.289.26-.523.583-.523h.794c.322 0 .583.234.583.523 0 .29-.26.524-.583.524zm6.309 3.405l-4.494-6.1.865-2.117a.492.492 0 0 0-.119-.542.624.624 0 0 0-.588-.15L10.33 1.105c-.414-.007-1.97.022-3.694.737-1.823.756-4.187 2.448-5.095 6.214-1.253 5.2-.033 9.168.724 10.944h12l1.071-.97a.491.491 0 0 0 .078-.659c-.988-1.39-3.319-4.89-4.22-7.067.33.102.704.168 1.1.15a2.72 2.72 0 0 0 1.531-.556l1.645.993a2.321 2.321 0 0 0 1.73.26c.59-.143 1.085-.507 1.358-1.002l.381-.69a.485.485 0 0 0-.036-.529z"/></symbol><symbol id="wallet" viewBox="0 0 30 27"><path fill="#fff" d="M-.967 12.08L8.92 2.196c.785-.784 2.12-.726 2.977.13l1.275 1.276L1.734 15.037c-.702.702-1.864.668-2.656-.073-.78-.864-.799-2.129-.045-2.883zm21.892-.725a2.32 2.32 0 0 1-3.276.005 2.321 2.321 0 0 1 3.28-3.28 2.318 2.318 0 0 1-.004 3.276zm-4.478-9.973l-1.572 1.572a1.83 1.83 0 0 0-.164.19l-.036.039c-.02.02-.046.032-.071.048-.012.01-.021.025-.038.032L2.331 15.498a2.81 2.81 0 0 1-.207.188c-.022.02-.049.036-.07.057-.052.037-.1.075-.15.107-.03.02-.062.038-.09.057-.05.029-.094.06-.142.085-.034.019-.07.032-.104.051-.046.02-.09.044-.137.066l-.11.04a1.343 1.343 0 0 1-.14.049 1.93 1.93 0 0 1-.115.035l-.137.033c-.04.01-.08.016-.122.024-.045.007-.09.015-.139.02l-.12.01-.105.008 9.82 9.82a2.116 2.116 0 0 0 2.988 0l13.981-13.982a2.115 2.115 0 0 0 .002-2.988L19.436 1.38a2.114 2.114 0 0 0-2.989.002z"/></symbol><symbol id="arrownew" viewBox="0 0 24 25"><path fill="#fff" id="Rectangle-6" d="M13.02 8.731l10.276 10.276a3 3 0 1 1-4.243 4.243L8.777 12.974l-3.784 3.784A3 3 0 0 1-.13 14.637V3.175a3 3 0 0 1 3-3h11.462a3 3 0 0 1 2.122 5.12L13.02 8.732z" transform="rotate(90 12.023 12.152)"/></symbol><symbol id="rocket" viewBox="0 0 27 28"><g clip-path="url(#clip-CE4849FD-2002-43DC-A7C9-0E882A3FC27D)" transform="rotate(42 16.5 11)"><path fill="#fff" d="M16.272 9.33a2.502 2.502 0 0 1-2.502-2.498 2.499 2.499 0 1 1 5 0 2.498 2.498 0 0 1-2.498 2.498zm5.685 6.525v-3.808c0-8.5-3.523-13.638-4.997-15.41a.834.834 0 0 0-1.283-.01c-1.497 1.773-5.09 6.911-5.09 15.42v3.813l-.692.47a4.964 4.964 0 0 0-2.125 4.083v4.55c0 .268.148.517.378.645a.7.7 0 0 0 .735-.037l2.24-1.523a3.792 3.792 0 0 1 2.125-.655h1.643v2.206c0 .405.324.731.721.731h1.316c.397 0 .72-.326.72-.731v-2.206h1.645c.757 0 1.496.225 2.124.655l2.24 1.523a.7.7 0 0 0 .735.037.733.733 0 0 0 .378-.645v-4.55a4.97 4.97 0 0 0-2.125-4.082z"/></g></symbol></svg>