<svg xmlns="http://www.w3.org/2000/svg"><symbol id="facebook-logo" viewBox="0 0 8 16"><path fill="#fff" d="M7.7.003L5.78 0C3.625 0 2.231 1.546 2.231 3.938v1.815H.301C.135 5.753 0 5.9 0 6.08v2.63c0 .18.135.326.301.326h1.93v6.638c0 .18.135.326.302.326H5.05c.167 0 .302-.146.302-.326V9.036h2.256c.166 0 .301-.146.301-.326l.002-2.63a.343.343 0 0 0-.09-.231.29.29 0 0 0-.213-.096H5.352V4.214c0-.74.163-1.115 1.054-1.115h1.293c.166 0 .301-.147.301-.327V.33c0-.18-.135-.326-.3-.327z"/></symbol><symbol id="google-logo" viewBox="0 0 19 12"><g clip-path="url(#clip-DE2D2BD1-B0D0-480D-A5E5-EE443C3C9941)"><path fill="#fbfcfd" d="M6.562 7.248h2.923a3.718 3.718 0 0 1-3.53 2.478 3.723 3.723 0 0 1-3.68-3.565 3.717 3.717 0 0 1 3.709-3.86c.958 0 1.833.365 2.492.964a.403.403 0 0 0 .547-.002l1.074-1.01a.401.401 0 0 0 0-.584A5.962 5.962 0 0 0 6.104.031C2.803-.033.023 2.671 0 5.971a5.984 5.984 0 0 0 11.958.38c.004-.04.007-1.374.007-1.374H6.562a.401.401 0 0 0-.4.401v1.47c0 .22.179.4.4.4"/></g><path fill="#fbfcfd" d="M17.045 4.955v-1.57A.384.384 0 0 0 16.661 3h-1.322a.384.384 0 0 0-.384.384v1.57h-1.57A.384.384 0 0 0 13 5.34v1.322c0 .212.172.384.384.384h1.57v1.57c0 .213.173.385.385.385h1.322a.384.384 0 0 0 .384-.384v-1.57h1.57A.384.384 0 0 0 19 6.66V5.339a.384.384 0 0 0-.384-.384h-1.57"/></symbol><symbol id="twitter-logo" viewBox="0 0 16 13"><path fill="#fbfcfd" d="M16 1.538c-.586.26-1.221.44-1.885.519A3.307 3.307 0 0 0 15.56.239a6.54 6.54 0 0 1-2.09.796A3.283 3.283 0 0 0 7.88 4.03 9.318 9.318 0 0 1 1.115.6 3.259 3.259 0 0 0 .67 2.252c0 1.137.58 2.144 1.46 2.729a3.232 3.232 0 0 1-1.484-.41v.04a3.291 3.291 0 0 0 2.631 3.223 3.386 3.386 0 0 1-1.484.054 3.293 3.293 0 0 0 3.066 2.28A6.595 6.595 0 0 1 .781 11.57c-.264 0-.522-.015-.781-.044A9.287 9.287 0 0 0 5.033 13c6.035 0 9.336-5.001 9.336-9.337l-.01-.425A6.612 6.612 0 0 0 16 1.538z"/></symbol><symbol id="vk-logo" viewBox="0 0 18 10"><path fill="#fbfcfd" d="M15.491 6.358c.598.573 1.228 1.111 1.763 1.741.237.28.461.569.632.894.243.462.023.97-.399.998l-2.622-.002c-.676.056-1.216-.212-1.67-.666-.363-.363-.699-.75-1.048-1.124a2.466 2.466 0 0 0-.472-.412c-.358-.228-.668-.159-.873.208-.208.373-.256.786-.276 1.201-.028.606-.215.766-.835.793-1.326.062-2.584-.135-3.752-.791-1.03-.58-1.83-1.396-2.525-2.321C2.06 5.076 1.023 3.097.09 1.062-.12.604.035.358.55.35 1.405.333 2.26.334 3.117.348c.348.005.578.2.712.523a15.54 15.54 0 0 0 1.74 3.166c.19.262.383.524.658.709.304.204.535.137.678-.196.09-.21.13-.438.151-.664.068-.777.077-1.553-.042-2.327-.073-.483-.35-.796-.842-.887-.25-.047-.213-.138-.091-.28C6.29.152 6.49 0 6.885 0h2.963c.467.09.57.296.634.757l.003 3.232c-.005.178.09.708.418.826.262.084.435-.122.592-.285.71-.74 1.216-1.613 1.668-2.518.201-.398.374-.81.54-1.224.125-.306.32-.457.67-.45l2.853.002c.085 0 .17.002.252.015.481.081.613.284.464.745-.234.723-.689 1.325-1.134 1.93-.475.646-.984 1.27-1.456 1.92-.433.594-.399.893.14 1.408z"/></symbol></svg>