<svg xmlns="http://www.w3.org/2000/svg">
	<symbol id="badoo" viewBox="0 0 144 26">
		<path fill="#91a9ca" d="M36.66.98h3.67c-.01 2.34-.02 4.68-.06 7.03 4.94-3.29 12.41-2.1 15.06 3.53 3.4 6.16-1.52 14.27-8.47 14.46h-.11c-4.91.01-9.69-3.82-9.99-8.86-.29-5.38-.02-10.77-.1-16.16m7.59 9.25c-4.19 1.47-5.34 7.59-1.87 10.41 3.18 3.14 9.14 1.3 10.1-3.02 1.48-4.62-3.76-9.41-8.23-7.39zM96.43.98h3.67c-.08 5.38.19 10.78-.1 16.16-.26 4.78-4.61 8.43-9.21 8.86h-.11c-4.04-.01-8.04-2.35-9.55-6.17-2.19-4.95.52-11.22 5.58-13.08 3.27-1.39 6.79-.28 9.77 1.27-.03-2.35-.04-4.69-.05-7.04m-9 9.5c-4.11 1.89-4.5 8.28-.66 10.67 3.48 2.64 9.1.18 9.57-4.15 1-4.75-4.68-8.95-8.91-6.52zM.67 13.88c-1.79-4.15.79-9.48 5.31-10.3 2.79-.77 5.29.85 7.45 2.39 1.98-1.28 4.06-2.91 6.58-2.52 4.45.22 7.76 5.02 6.54 9.27-1.68 6.02-6.54 11.09-12.37 13.28h-1.23C7.28 24.17 2.79 19.37.67 13.88zm58.18-.82c1.75-6.53 10.73-9.2 15.74-4.64 5.24 4.29 3.16 11.71 3.54 17.58h-3.5c.01-.52.04-1.57.06-2.1-1.9.87-3.83 1.69-5.89 2.1h-.1c-6.56.28-12.1-6.63-9.85-12.94m6.5-2.52c-4.01 1.96-4.36 8.22-.58 10.6 3.83 2.94 9.96-.34 9.71-5.14.2-4.49-5.26-7.79-9.13-5.46zm38.52.25c3.54-6.33 13.77-6.07 17.02.4 3.73 6.09-1.04 14.53-8.1 14.81h-.19c-7.6.44-13.04-8.88-8.73-15.21m6.3-.59c-4.32 1.39-5.5 7.68-1.93 10.51 3.39 3.26 9.55.89 10.19-3.68.93-4.44-4.05-8.62-8.26-6.83zm20.33-3.45c5.78-2.44 12.95 2 13.33 8.25.8 5.61-4.14 11.08-9.78 10.92-5.3.18-10.07-4.62-9.9-9.91-.1-4.03 2.63-7.83 6.35-9.26m.9 3.65c-4.3 1.81-4.74 8.45-.73 10.83 3.85 2.8 9.8-.54 9.56-5.24.16-4.34-4.97-7.64-8.83-5.59z"/>
	</symbol>
	<symbol id="coca" viewBox="0 0 98 33"><g fill="#91a8c9"><path d="M11.63 4.68c2.7-2.04 5.91-3.99 9.43-3.7 3.08 1.14 1.55 5.82-1.12 6.47-3.13-1.83 5.01-5.18.35-4.98-4.25 1.05-7.05 4.79-9.68 8.03-3.09 4.21-5.91 9.13-5.83 14.51-.08 3.27 3.24 5.37 6.23 5.11 7.38-.54 14.37-4.38 21.89-3.36 3.44.41 6.3 2.56 8.83 4.76-3.52-.68-7.44-2.52-10.61.33-3.84-4.12-9.9-2.98-14.71-1.59-4.16.9-9.06 2.91-12.99.23C.4 28.46.11 24.33.81 21.07 2.19 14.5 6.47 8.83 11.63 4.68zm40.8 5.78c3.56-4.12 7.87-8.35 13.44-9.32 2.74.47 5.47.11 8.21-.03 3.19.54 5.83 2.61 8.64 4.07-.82.87-1.63 1.74-2.45 2.61-3.24-2.13-6.45-4.55-10.39-5.2-.54 4.05-2.14 8.39-5.85 10.54-.96.64-2.12.46-3.06-.11-.36-4.93 3.95-8.11 7.12-11.14-5.32 1.4-9.14 5.64-12.37 9.84-3.11 4.21-6.07 8.92-6.5 14.26-.39 2.02 1.7 4.36 3.77 3.24 4.26-2.15 6.86-6.85 7.16-11.53-2.85.08-3.87 2.78-4.73 5.03-1.38 1.02-2.77 2.04-4.15 3.06.95-3.98 2.9-9.05 7.61-9.56 2.38.02 2.3 3.15 1.72 4.77-1.51 4.65-4.88 9.19-9.68 10.73-3.44 1.08-6.23-2.5-5.92-5.68.43-5.9 3.87-11.06 7.43-15.58m9.12 2.32c4.47-.68 6.6-5.38 7.28-9.36-3.84 1.63-6.48 5.33-7.28 9.36z"/><path d="M84.37 4.43c1.77-1.54 3.75-3.31 6.27-3.15.22 1.68.05 3.34-.52 4.98 2.45-1.39 4.83-2.89 7.23-4.36a18.648 18.648 0 0 1-9.91 7.4c-2.84 5.32-7.81 9.07-12.24 13.01-1.43 2.02-1.77 4.56-2.2 6.94 2.79-.78 3.89-3.65 5.44-5.78 1.87-2.95 4.2-5.7 7.39-7.28 1.95.43 3.95.5 5.95.49-2.32 4.21-5.01 8.23-6.92 12.66 2.62-1.53 4.21-4.15 6.48-6.07-2 3.51-4.55 8-8.94 8.59-.29-.48-.89-1.45-1.19-1.93-1.44.66-2.9 2.72-4.61 1.6-.26-.59-.78-1.75-1.04-2.34-1.42 1.02-3 3.56-5.02 2.33-2.63-2.11 1.35-5.79-.38-7.74-3.27 2.58-5.04 8.24-9.93 8-2.19-1.54-.94-4.6-.13-6.58 1.92-3.76 4.64-7.8 8.91-9.01 3.24-.15 1.72 3.64 2.17 5.63.19-.02.56-.05.75-.06 3.19-6.38 7.06-12.56 12.44-17.33m-.14 3.31c.43-.29 1.29-.88 1.72-1.17l3.41-.39c.2-1.33.39-2.66.59-3.99-2.13 1.57-4.49 3.13-5.72 5.55m-.99 1.12c-2.97 3.44-5.15 7.46-7.23 11.48 3.68-2.71 6.64-6.2 9.81-9.45-.85-.69-1.68-1.4-2.58-2.03m-14.2 14.1c.57-1.75 1.3-3.53 1.16-5.42-3.5-.29-4.21 4.15-1.16 5.42m10.63 6.47c4.05-2.88 5.95-7.68 8.22-11.91-4.54 2.06-7.65 7.04-8.22 11.91m-17-.24c2.82-.69 4.32-3.23 5.86-5.42-.73-.62-2.21-1.85-2.95-2.46-1.47 2.41-2.96 4.94-2.91 7.88zM19.18 9.12c1.29-.78 3.69-1.02 4.02.95-.12 1.61-.34 3.2-.66 4.78 3.42-1.97 5.87-7.18 10.4-5.87 1.57.95.92 3.33 1.63 4.86 1.34-2.08 3-4.19 5.42-5.07 2.01-.1 4 .24 6.01.28-2.35 4.12-4.97 8.11-6.91 12.45 2.51-1.45 4.21-3.85 6.35-5.74-1.86 3.59-4.52 7.26-8.48 8.65l-1.52-2.04c-1.49.85-3.24 2.86-4.94 1.31-.13-.69-.39-2.08-.51-2.78-2.12 1.59-4.95 4.62-7.79 2.74-2.34-2.66.09-6 .76-8.84-3.4 3.11-5.16 8.33-10.05 9.54-2.58-.28-2.42-3.37-1.79-5.21 1.39-4.12 4.26-7.86 8.06-10.01m.11 2.12c-1.55 1.82.64 2.74 1.88 3.76.46-1.76.81-3.54 1.05-5.34-1.15.27-2.13.8-2.93 1.58m14.45 10.44c4.51-2.49 6.18-7.84 8.53-12.11-4.48 2.39-7.43 7.25-8.53 12.11M30 10.72c-2.13 3.29-5.52 6.56-5.07 10.79 4.18 1.25 6.26-4.5 8.93-6.8-1.18-.72-5.55-1-2.29-2.91-.52-.36-1.05-.72-1.57-1.08m-12.64 2.82c-1.35 2.51-3.09 5.06-2.68 8.06 2.72-1.03 4.35-3.51 5.93-5.8-1.09-.75-2.17-1.5-3.25-2.26zm30.77-4.59l2.95.04c-.51.86-1.01 1.73-1.52 2.59l-2.82.08c.46-.91.92-1.81 1.39-2.71z"/></g></symbol><symbol id="disney" viewBox="0 0 117 49"><g fill="#90a8c9"><path d="M15.23 0h.45c6.83 6.93 7.8 17.69 5.39 26.72-1.22 4.24-3.56 9.05-8.14 10.34-2.56.53-3.99-2.14-5.42-3.74-1.45-.01-2.92.1-4.35-.2C.12 30.38.03 25.88.34 22.09c.81-6.88 2.9-14.53 9.06-18.55-4.26 7.69-7.74 16.39-6.23 25.35.13 1.99 2.07 2.53 3.68 2.94-.01-5.42-1.64-11.55 1.65-16.38 1.09-1.51 3.84-3.58 5.04-1.08 2.47 5.93-.6 12.24-4.02 17.1 1.3.69 2.6 2.49 4.15 1.28 3.18-2.11 4.33-6.12 5.17-9.65 1.31-7.04 1.27-15.12-3.16-21.12-.11-.49-.33-1.48-.45-1.98M9.28 28.19c2.19-4.21 3.37-9.08 2.06-13.77-2.2 4.23-2.08 9.14-2.06 13.77zm32.2-20.54c-.2-4.06 4.43-4.58 7.48-4.69 6.47.21 12.09 4.19 16.48 8.65 4.53 5.15 8.12 12.78 4.8 19.49-2.39 5.23-8.78 7.03-14.03 5.58-.57.56-1.7 1.68-2.26 2.25-.87-5.95-7.95-8.32-8.24-14.58 2.1-1.91 4.55-3.36 7.21-4.34.22-2.77.3-5.63 1.5-8.19.95 2.52 1.12 5.19 1.17 7.85 3.32.06 7.81.64 8.91 4.39.8 2.33-1.3 4.24-3.49 4.37.41-.84 1.24-2.52 1.65-3.36-2.3-.87-4.69-1.51-7.1-2.04-.11 3.5-.04 7 .13 10.49 3.64.59 7.81.53 10.58-2.27 3.83-3.56 2.51-9.65.09-13.64C61.53 9.86 52.23 4.34 42.92 5.97c.37.59 1.1 1.77 1.47 2.35-.73-.16-2.19-.5-2.91-.67M46.51 25c.77 3.34 3.52 5.43 6.17 7.28.17-2.96.25-5.91.27-8.87-2.15.48-4.3 1.02-6.44 1.59zm25.6-17c1.62-.73 3.37-2.38 5.29-1.6 1.5 1.13 3.74 2.33 3.13 4.58-.76 4.45-4.91 7.16-9.27 6.93-.57-2.79-.99-5.63-.44-8.47.66.5 1.33 1.01 1.99 1.52l-1.3 1.14.75.73c.69-1.03 1.37-2.06 2.06-3.09-.75-.58-1.47-1.16-2.21-1.74m1.54 7.16c3.07-.31 6.61-2.63 4.97-6.15-2.32 1.44-3.96 3.64-4.97 6.15zm-46.68 1.23c1.95 6.21 2.62 12.82 2.07 19.29-1.22-1.51-1.67-3.38-2.06-5.24l-2.64-.06c-.51 1.98-1.01 3.97-1.64 5.92-2.43-2.39-.96-5.76-.99-8.71 2.03-3.6 3.1-7.66 5.26-11.2m-.63 7c-1.15.62-1.78 3.4-.19 3.78 1.4-.49 1.83-3.44.19-3.78zm3.74 3.59c.51-3.51.76-7.29 2.99-10.22.49 4.49-1.01 8.85-1.25 13.31 1.48-.69 2.95-1.38 4.42-2.06-.07 2.95-1.75 5.36-4.32 6.72-2-2.1-2.36-5-1.84-7.75z"/><path d="M34.63 17.59c1.29 1.06 2.57 2.12 3.88 3.15 1.47-1.38 2.9-3 5.05-3.28-.79 1.19-1.67 2.32-2.51 3.47l1.52.08-.25-1.41c.55.08 1.64.22 2.19.3-.1 2.78-1.78 4.53-4.38 5.07-.64 4.83.11 9.75-.77 14.54-4-4.33-2.24-10.6-1.49-15.79-2.05-1.44-3.29-3.58-3.24-6.13zm58.23-.53c3.13 3.87 3.99 9.1 3.44 13.94-.16 1.55-1.42 2.64-2.23 3.87-1.79-2.81-2.97-5.92-4.13-9.02-.21 3.38-.26 6.79-.9 10.13-3.07-4.54-1.22-10.55.34-15.37 1.93 3.05 3.3 6.39 4.91 9.59.02-4.43-1.25-8.72-1.43-13.14zM73.7 19.41c2.63 4.88 1.32 10.91 1.44 16.26-.48-.32-1.42-.96-1.89-1.28-.66-4.95-.43-10.06.45-14.98z"/><path d="M76.91 26.7c-3.25-5.58 7.95-9.62 10.19-4.61-3.01 1.26-6.42 1.08-9.37 2.56 2.5.81 5.48.41 7.71 1.95 2.64 2.86.91 8.76-3.43 8.58-3.52.28-5.35-3.27-5.28-6.33 2.42-1.05 5-.77 7.4.19-.59.69-1.18 1.38-1.77 2.08-1.7-.58-3.42-1.13-5.16-1.6 1.23 4.38 6.41 1.83 8.48-.44-2.68-1.6-5.79-1.79-8.77-2.38zm20.34-5.91c2.53-.5 5.09-1.36 7.7-1.03.53.89 1.03 1.8 1.48 2.73-2.01.58-4.43.36-5.93 2.09 1.46.81 5.04.47 3.6 3.04-1.28.25-2.56.46-3.85.64-.14.68-.41 2.04-.55 2.72 1.58-.28 3.17-.49 4.77-.62 1 3.34-3.24 4.68-5.65 5.52-2.3-2.8-1.33-6.28-.75-9.48.36-.67 1.08-2 1.44-2.67-.73-1-1.49-1.98-2.26-2.94zm8.73 9.35c.31-3.91 1.84-7.61 4.2-10.72-.66 3.74-1.34 8.03-4.2 10.72zm.43-.09c3.36-2.48 4.98-6.52 7.91-9.42 4.13 5.49 1.18 14.16-5.43 15.98-.9 4.11-1.63 8.25-2.34 12.39h-.53c-3.55-5.9 1.32-12.6.39-18.95m8.28-6.13c-1.98 2.6-3.38 5.57-4.38 8.66 3.49-1.45 4.95-5.07 4.38-8.66z"/></g></symbol><symbol id="facebook" viewBox="0 0 136 28"><path fill="#91a9ca" d="M5.05 2.06C7.24.09 10.44.79 13.12.59v4.42c-1.26.08-2.51.2-3.75.38-.24 1.28-.41 2.57-.49 3.88 1.41.01 2.83.02 4.25.02-.16 1.49-.33 2.97-.49 4.46-1.2-.01-2.4-.01-3.6-.01-.01 4.4-.01 8.79.01 13.19-1.8.01-3.61.01-5.41.01-.01-4.39 0-8.78-.01-13.18H.89v-4.5c.67 0 2.02-.01 2.69-.01.19-2.41-.38-5.28 1.47-7.19zM62.06 2c1.79-.3 3.58-.6 5.38-.89-.01 2.81-.02 5.61-.06 8.41 3.04-.4 6.69-1.23 9.2 1.03 1.71 2.05 1.17 4.97 1.33 7.44-.01 2.88.07 6.67-3 8.11-4.03 1.81-8.6.87-12.83.43-.04-8.18.01-16.36-.02-24.53m5.39 12.05c0 2.92-.01 5.83.03 8.75 1.62-.29 4.25.42 4.83-1.71.32-2.45.09-4.93-.12-7.39-1.59-.08-3.18.06-4.74.35zM114.41 2c1.8-.3 3.6-.59 5.41-.89 0 5.35-.01 10.69.02 16.03 1.68-2.63 3.34-5.28 5.04-7.91l5.8.03c-1.8 2.87-3.62 5.74-5.43 8.61 1.81 3.01 3.62 6.02 5.42 9.04-1.92.03-3.83.04-5.75.08-1.7-2.72-3.33-5.49-5.05-8.19-.07 2.71-.05 5.42-.05 8.13-1.81.01-3.61.01-5.41 0 0-8.31-.01-16.62 0-24.93zM14.96 9.29c3.94.37 9.52-1.33 12.03 2.68 1.4 4.86.41 10.06.69 15.05-1.76-.09-3.65.17-5.25-.76-2.09.49-4.27 1.3-6.43.66-4.05-1.07-4.66-8.03-.64-9.5 2.25-.66 4.64-.42 6.95-.52-.08-.71-.23-2.13-.3-2.84-2.49-.29-4.99-.27-7.49-.3.15-1.49.3-2.98.44-4.47m3.15 11.66c-.64 2.95 2.55 2.49 4.23 1.64l-.08-2.03c-1.39.06-2.8.02-4.15.39zm11.98-7.79c2.01-4.85 8.33-4.58 12.58-3.5.87 1.15.22 2.94.47 4.32-2.55-.09-5.5-1.24-7.83.22-.71 2.46-.6 5.14-.09 7.62 2.19 1.79 5.36.43 7.91.37a83.45 83.45 0 0 1-.17 4.47c-4.05.52-9.36 1.47-12.18-2.32-1.87-3.34-1.5-7.59-.69-11.18zm17.25-2.88c3.05-1.74 7.19-1.73 10.25 0 3.13 2.02 2.45 6.2 2.58 9.38-3.43 0-6.85-.02-10.28.03.24.95.6 1.84 1.08 2.69 2.88.71 5.85.1 8.74-.19-.03 1.46-.03 2.91-.05 4.37-3.86.47-8.11 1.38-11.75-.49-2.55-1.37-3.25-4.47-3.17-7.13-.03-2.99-.27-6.81 2.6-8.66m2.53 5.8c1.77-.04 3.53-.12 5.29-.22-.65-.91-.7-2.88-2.22-2.74-1.97-.64-2.81 1.45-3.07 2.96zM83.5 9.66c3.52-1.08 8.29-1.07 10.69 2.18 1.62 2.74 1.15 6.13 1.05 9.17-.23 8.33-15.45 8.3-15.67-.03-.26-3.97-.73-9.71 3.93-11.32m1.91 4.6c-.98 2.05-.51 4.53-.38 6.73.24 2.1 3.46 2.14 4.59.76.43-2.42.49-4.98-.04-7.39-1.1-1.02-3.09-1.25-4.17-.1zm15.98-4.75c3.69-.99 8.97-.74 10.76 3.26 1 3.14.79 6.61.27 9.83-1.48 5.05-8.27 5.4-12.32 3.52-3.7-1.96-3.24-6.69-3.13-10.22-.08-2.8 1.58-5.7 4.42-6.39m1.31 5.03c-.31 2.54-1.71 7.96 2.14 8.11 3.6.17 2.39-4.42 2.51-6.68.47-2.59-3.61-3.31-4.65-1.43zm29.22 10.45c-.23-2.55 2.9-2.1 4.08-.79v2.05c-1.43.64-4.3 1.22-4.08-1.26z"/></symbol><symbol id="gilette" viewBox="0 0 98 26"><g fill="#91a9ca"><path d="M24.76 7.28c-2.03-2.44.19-6.36 3.21-6.43 3-.22 3.63 3.2 5.01 5.12l.28-4.44c2.26-.01 4.53-.01 6.79-.01l-4.02 22.55h-6.62c1.01-5.58 1.91-11.19 3.03-16.75-.43-.68-.85-1.35-1.28-2.02-.08 3.21-4.57 4.37-6.4 1.98zm12.98 16.81c1.32-7.53 2.64-15.05 3.97-22.57h6.67c-.78 4.19-1.4 8.41-2.39 12.56 2.18-3.29 5.88-5.92 10.02-5.1 2.7.13 4.59 2.15 6.14 4.14l.56-3.15c3.58.05 2.51-4.33 3.38-6.69 2.21-.01 4.43-.01 6.65-.01-.4 2.21-.79 4.43-1.14 6.64 3.87.43 2.88-4.16 3.74-6.63 2.21-.01 4.43-.01 6.65-.01l-1.11 6.36c.57.01 1.7.04 2.26.05l-.69 2.88c3.04-3.44 8.32-4.97 12.4-2.43 2.71 1.54 2.96 4.9 2.99 7.68-3.58.1-7.16.06-10.74.11.94.81 1.32 3.62 3.04 2.14 2.16-1.35 4.61-.05 6.86.21-1.65 1.98-3.51 4.07-6.17 4.57-3.61 1.05-7.94-.67-9.34-4.27-.59-1.97-.54-4.07-.88-6.09-1.57 2.96-1.67 6.37-2.31 9.59h-6.68c.54-2.96 1.05-5.93 1.57-8.9l-2.58.04-1.56 8.86h-6.67c.55-2.95 1.07-5.91 1.59-8.87-.4-.03-1.21-.1-1.61-.13-.07.7-.22 2.11-.3 2.82-3.51-.01-7.03-.03-10.54.05.86 1.04 1.73 3.56 3.55 2.03 2.07-1.13 4.32.03 6.44.3-2.31 3.36-6.43 5.76-10.58 4.58-3.14-.67-4.91-3.6-5.82-6.44-.17 1.88-.4 3.76-.66 5.63-2.24.02-4.48.03-6.71.05m49.92-8.91c1.57-.02 3.13-.03 4.7-.07-.95-2.76-3.5-1.99-4.7.07zM5 5.1C10.1.97 19.06 1.64 22.14 7.94c-2.14.84-4.29 1.68-6.43 2.52-1.4-.81-2.88-2.34-4.63-1.42-2.76 1.34-3.34 5.13-2.68 7.84.94 2.51 4.63 2.45 5.76.04l-3.24-.32c.28-1.58.56-3.16.83-4.74h9.72c-.61 3.39-1.23 6.77-1.79 10.17-4.81 2.63-11.36 3.91-16.04.36C-1.24 17.89-.25 8.95 5 5.1z"/><path d="M21.09 24.07c.83-4.81 1.67-9.61 2.5-14.42 2.22 0 4.44 0 6.66.01-.84 4.8-1.69 9.61-2.54 14.41h-6.62z"/></g></symbol><symbol id="google" viewBox="0 0 115 37"><g fill="#91a9ca"><path d="M13.4 0h2.97c3.17.39 6.04 1.87 8.66 3.62-.92.96-1.85 1.91-2.78 2.87-4.25-3.05-10.52-3.58-14.5.2-5.09 4.19-4.4 13.02 1.24 16.4 5.53 3.96 14.55 1.05 15.66-5.99-3.27-.09-6.55-.1-9.82-.11v-3.87c4.57 0 9.14-.02 13.71.02.03 3.94-.34 8.24-3.2 11.24-5.15 5.74-14.85 5.83-20.45.7C2.07 22.71.51 19.19 0 15.59v-2.23C.55 6.37 6.51.69 13.4 0zm78.41.95h4.12c.01 9.07.01 18.14 0 27.21-1.37 0-2.75 0-4.12-.01-.01-9.06-.01-18.13 0-27.2zm-55.38 9.63c6.65-2.42 14.18 4.44 12.03 11.29-1.59 7.05-11.68 9.37-16.28 3.85-4.68-4.67-2.12-13.51 4.25-15.14m.12 4.1c-3.75 2.15-3.37 8.39.62 10.04 3.64 1.82 7.99-1.76 7.47-5.63-.06-3.86-4.8-6.66-8.09-4.41z"/><path d="M56.51 10.74c6.74-2.87 14.81 4.15 12.48 11.22-1.61 6.85-11.29 9.2-15.99 4.05-4.82-4.46-2.72-13.32 3.51-15.27m.88 3.78c-4.14 2.03-3.72 8.86.65 10.33 3.65 1.53 7.71-2.1 7.15-5.86-.14-3.67-4.54-6.42-7.8-4.47zm15.13-.11c2.53-4.15 8.2-5.48 12.2-2.6.21-.26.65-.77.87-1.02.84.02 2.54.05 3.38.07-.14 6.38.3 12.79-.2 19.15-.37 3.43-3.19 5.84-6.25 6.99h-3.7c-3.22-.39-5.62-2.62-7.19-5.31.85-.35 2.55-1.04 3.4-1.39 1.57 1.62 3.36 3.83 5.93 3.06 3.36-.2 4.13-3.77 4.49-6.46-2.3.95-4.73 2.39-7.31 1.62-6-1.19-9.51-9.12-5.62-14.11m6.55-.39c-4.5 1.15-5.28 7.96-1.42 10.35 2.84 2.06 6.99-.05 7.63-3.33 1.18-3.65-2.26-8.17-6.21-7.02zm20.25 10.59c-4.02-5.36.02-14.01 6.72-14.29 4.3-.54 7.66 2.97 8.95 6.75-4.23 1.93-8.61 3.53-12.82 5.49 2.47 3.33 6.9 3.06 9.73.36 1.02.54 2.05 1.04 3.1 1.52v.36c-.02-.05-.06-.14-.09-.19-3.58 5.26-12.13 5.44-15.59 0m2.21-5.33c3.01-1.13 5.99-2.35 8.93-3.67-1.49-1.26-3.38-2.39-5.37-1.48-2.41.52-3.08 3.08-3.56 5.15z"/></g></symbol><symbol id="microsoft" viewBox="0 0 146 32"><g fill="#91a9ca"><path d="M.18.64h14.8v14.75H.18C.17 10.47.17 5.56.18.64zM16.5 15.39V.64h14.82v14.75H16.5zm114.77-3.38c.6-2.1.5-5.04 2.89-6.02 1.7-.96 3.63-.5 4.84 1.02-2.61.68-4.35 2.35-4.61 5.06l5.12.06c.01-1.02.02-2.03.04-3.04 1.05-.31 2.1-.62 3.15-.92 0 1.3-.01 2.6-.01 3.91.83.03 2.48.08 3.31.11v2.43l-3.34.12c.02 2.68.06 5.36.16 8.05.8.12 2.39.37 3.18.5v2.29c-2.04.03-5.1.69-6.04-1.75-.77-2.98-.37-6.1-.46-9.14-1.55 0-3.1.01-4.65.01v10.74c-.81 0-2.43 0-3.23.01-.01-3.57-.01-7.14 0-10.71l-2.18-.08c-.02-.6-.07-1.79-.1-2.39.48-.06 1.45-.19 1.93-.26zM40.61 6.88h4.6c1.85 4.66 3.78 9.29 5.53 13.99 1.75-4.69 3.76-9.29 5.62-13.95 1.48-.03 2.96-.05 4.44-.07.01 6.19-.01 12.38.02 18.57-.82.01-2.44.03-3.25.05 0-4.93-.06-9.87.08-14.79-1.98 4.76-3.51 9.77-6.01 14.28-.44.25-1.3.76-1.73 1.01-2.24-5.01-4.3-10.09-6.32-15.19.1 4.88.05 9.77.06 14.66-.76 0-2.28.01-3.04.01V6.88zm23.26-.01c1.93-1.43 4.75.82 2.98 2.8-1.94 1.47-4.4-.72-2.98-2.8zm-.06 5.24h3.15v13.34c-.78 0-2.36-.01-3.15-.01V12.11zm8.94.47c2.04-1.09 4.42-.64 6.63-.61.08.79.26 2.36.35 3.15-1.79-.3-3.88-1.29-5.55-.07-3 1.94-2.23 7.95 1.73 8.07 1.06-.17 3.18-.5 4.25-.66-.13 3.85-4.73 3.79-7.38 2.72-5-2.16-4.82-10.32-.03-12.6zm9.18-.47h3.19l-.22 1.55c1.41-.95 2.97-1.65 4.61-2.1.1.75.32 2.26.42 3.02-1.53.42-3.87-.05-4.43 1.89-.75 2.93-.3 6.01-.41 9-1.06-.02-2.11-.03-3.16-.05V12.11zm11.47.42c3.84-1.99 9.71-.16 10.13 4.6 1.31 4.97-3.41 9.92-8.45 8.51-6.22-.81-7.04-10.57-1.68-13.11m.91 2.82c-2.26 2.46-1.32 8.14 2.73 7.84 3.1-.02 3.78-3.74 3.15-6.13-.41-2.65-4.08-3.55-5.88-1.71zm10.9-.25c.8-3.58 5.14-3.44 8-3.14.04.72.13 2.15.18 2.86-1.92-.12-4.55-1.41-5.4 1.17 1.74 1.27 3.83 2.04 5.43 3.51 1.28 1.78.57 4.55-1.4 5.51-2.08 1.21-4.54.55-6.77.3-.07-.75-.19-2.25-.26-3 1.79.45 6.46 2.26 5.71-1.03-2.2-1.66-6.42-2.54-5.49-6.18z"/><path d="M120.1 12.08c4.04-1.42 9.14 1.28 9.02 5.86.89 5.01-4.27 9.17-9.01 7.6-6.38-1.34-6.29-12.04-.01-13.46m.15 2.9c-3.05 2.27-1.74 9.05 2.74 8.15 3.04-.43 3.33-4.34 2.5-6.66-.71-2.1-3.52-2.64-5.24-1.49zM.18 16.92c4.93-.01 9.86 0 14.8-.01v14.75H.18c-.01-4.91-.01-9.83 0-14.74zm16.32 0c4.94-.01 9.88-.01 14.82 0v14.75c-4.85.39-9.87-.82-14.61.33h-.45c.36-5.02.24-10.06.24-15.08z"/></g></symbol><symbol id="netflix" viewBox="0 0 97 27"><path id="#91a9caff" fill="#91a9ca" d="M.85.86h3.82c1.73 4.81 3.46 9.64 5.2 14.45.02-4.82 0-9.63.01-14.45h4.02c.01 8.01 0 16.03 0 24.05-1.46.16-2.93.32-4.39.49-1.56-4.44-3.09-8.88-4.64-13.32-.01 4.63 0 9.26 0 13.88-1.34.19-2.68.37-4.03.56 0-8.56 0-17.11.01-25.66zm16.91 0c3.71-.01 7.42-.01 11.14 0v4c-2.38 0-4.75 0-7.13.01.01 1.79.01 3.58 0 5.38l5.41-.03c.01 1.31.01 2.63 0 3.95-1.8.02-3.61.05-5.41.07v5.97c2.38-.16 4.75-.32 7.13-.47v3.97c-3.72.23-7.43.5-11.15.82 0-7.89 0-15.78.01-23.67zm13.7 3.99c0-1.33.01-2.66.01-3.99 4.13 0 8.27-.01 12.4 0v4c-1.39 0-2.79 0-4.18.01-.01 6.12 0 12.25 0 18.38-1.35.05-2.69.1-4.03.14-.01-6.17 0-12.35 0-18.52-1.4-.01-2.8-.01-4.2-.02zm14.98 18.3c0-7.43 0-14.86.01-22.29 3.73-.01 7.46-.01 11.19 0 0 1.33 0 2.66.01 4-2.4 0-4.79 0-7.19.01v5.15c1.81.01 3.63.01 5.44.01v3.96c-1.81 0-3.62.01-5.44.01.01 3.05 0 6.1 0 9.16-1.34 0-2.68-.01-4.02-.01zM60.21.85c1.34-.01 2.68-.01 4.02 0 .01 6.23-.01 12.46.01 18.69 2.29.12 4.58.25 6.86.38.01 1 .01 2.98.01 3.97-3.63-.22-7.26-.41-10.9-.54V.85zm14.21 23.29c0-7.76-.01-15.52 0-23.29 1.01.01 3.01.01 4.02.01 0 7.87 0 15.74-.01 23.62-1.34-.12-2.67-.23-4.01-.34zM81.85.86h4.34l2.61 6.72c.96-2.24 1.93-4.48 2.9-6.73 1.47.01 2.94.01 4.41.01-1.73 4.05-3.49 8.09-5.22 12.14 1.74 4.51 3.49 9.01 5.21 13.52-1.53-.22-3.07-.43-4.61-.65-.95-2.52-1.92-5.03-2.9-7.54-.98 2.29-1.96 4.57-2.94 6.85-1.41-.14-2.83-.28-4.24-.43 1.7-3.95 3.4-7.89 5.09-11.84-1.55-4.02-3.11-8.03-4.65-12.05z"/></symbol>
	<symbol id="tesla" viewBox="0 0 147 19"><path fill="#91a9c9" d="M0 0h24.6c-1.19 1.25-2.08 3.08-3.84 3.62-2.27.31-4.56.21-6.85.27 0 5.03.02 10.07-.01 15.11h-3.71c-.05-5.04-.02-10.07-.03-15.11C6.55 3.8 1.96 4.64 0 .7V0zm32.57 0h23.21c-1.48 1.32-2.52 3.76-4.81 3.71-4.34.22-8.7.17-13.04.04-2.54.27-3.73-2.33-5.36-3.75zm33.3 0H87.4c-1.68 1.34-2.92 3.81-5.37 3.7-4.15.19-8.31.05-12.46.04-.01.94-.01 2.82-.01 3.76 5.7 0 11.41.01 17.11 0 .01 3.84-.01 7.67 0 11.5H64.25c1.8-1.37 3.31-3.67 5.78-3.75 4.31-.22 8.63-.05 12.95-.07v-3.95c-5.7.01-11.41.01-17.11.01-.01-3.75.01-7.49 0-11.24zm31.41 0h3.7c.02 5.09 0 10.18.01 15.27 5.7.02 11.4-.13 17.1.15-1.07 1.2-2.11 2.42-3.23 3.58H97.28c0-6.33-.01-12.67 0-19zm27.06 0H147v.46c-1.03 1.39-2.04 3.32-4.06 3.25-4.61.22-9.25.22-13.87 0-2.22-.06-3.2-2.48-4.73-3.71zM32.81 7.62c7.57-.21 15.14-.17 22.71-.03-1.25 1.44-2.27 3.73-4.52 3.65-4.71.1-9.43.17-14.13-.05-1.96-.23-2.83-2.31-4.06-3.57zm92.78-.09c6.96 0 13.93.01 20.9.02 0 3.82-.01 7.63 0 11.45h-3.71c.01-2.55 0-5.1 0-7.65h-13.49V19h-3.7c0-3.82-.01-7.65 0-11.47zm-93 7.9c7.69-.42 15.41-.29 23.11-.08-1.21 1.22-2.39 2.47-3.64 3.65H36.55c-1.35-1.15-2.66-2.36-3.96-3.57z"/></symbol>
	<symbol id="toyota" viewBox="0 0 118 21"><path fill="#91a9ca" d="M27.43 0h1.16c5.63.13 10.49 5.29 10.1 10.94-.11 5.35-4.81 9.82-10.1 10.06h-.55c-5.3-.16-10.05-4.61-10.21-9.97C17.4 5.5 21.97.46 27.43 0m-1.19 4.26c-5.42 2.19-4.91 11.42.89 12.72 4.37 1.04 7.85-3.92 6.83-7.91-.48-3.46-4.32-6.37-7.72-4.81zM68.48 0h1.2c5.61.15 10.47 5.29 10.07 10.92-.09 5.34-4.75 9.79-10 10.08h-.26c-5.46.04-10.46-4.51-10.59-10.03C58.5 5.48 63.05.47 68.48 0m-1.25 4.29c-5.24 2.22-4.83 11.11.73 12.63 4.46 1.29 8.15-3.82 7.06-7.9-.5-3.47-4.4-6.35-7.79-4.73zM0 .76C5.57.75 11.14.75 16.7.76c-.01 1.2-.01 2.41 0 3.62-2.05 0-4.09.01-6.13.01-.01 5.36 0 10.71-.01 16.07H6.17c-.01-5.36 0-10.71-.01-16.07-2.05 0-4.11-.01-6.16-.02V.76zm38.91 0c1.7 0 3.41 0 5.11-.01 1.6 2.76 3.18 5.52 4.77 8.28 1.6-2.76 3.18-5.52 4.78-8.28 1.7.01 3.41.01 5.11.01-2.47 4.11-5.24 8.05-7.56 12.25-.23 2.48-.06 4.96-.09 7.45-1.49-.01-2.98-.02-4.46-.01-.31-3.21.96-6.93-1.33-9.64-2.15-3.33-4.23-6.7-6.33-10.05zm42.17 0c5.55-.01 11.1-.01 16.65 0-.01 1.21-.01 2.42 0 3.62-2.05 0-4.09.01-6.13.01-.01 5.36.01 10.72-.01 16.07-1.46 0-2.92-.01-4.38 0V4.39c-2.04 0-4.09-.01-6.13-.01V.76zm23.27 0c1.82 0 3.64 0 5.46-.01 2.71 6.57 5.41 13.14 8.12 19.71-1.71 0-3.42-.01-5.13 0-.56-1.48-1.13-2.95-1.69-4.42-2.69-.01-5.38-.01-8.06 0-.57 1.47-1.13 2.94-1.69 4.42-1.71-.01-3.42-.01-5.13 0 2.7-6.57 5.41-13.14 8.12-19.7m-.04 11.93c1.85.01 3.69.01 5.53.01-.92-2.43-1.84-4.85-2.76-7.28-.92 2.43-1.84 4.85-2.77 7.27z"/>
</symbol>
</svg>