<svg xmlns="http://www.w3.org/2000/svg" xmlns:xlink="http://www.w3.org/1999/xlink" style="width: 0; height: 0; visibility: hidden; position: absolute;" aria-hidden="true">
  <symbol  viewBox='0 0 144 26' id='badoo'>
    <path fill="#91a9ca" d="M36.7 1h3.6v7c5-3.3 12.4-2 15 3.5 3.4 6.2-1.5 14.3-8.4 14.5h-.1c-5 0-9.7-3.8-10-8.9-.3-5.3 0-10.7-.1-16.1m7.5 9.2c-4.1 1.5-5.3 7.6-1.8 10.4 3.2 3.2 9.1 1.3 10-3 1.6-4.6-3.7-9.4-8.1-7.4zM96.5 1h3.7c0 5.4.2 10.8-.1 16.1-.3 4.8-4.6 8.5-9.2 8.9h-.1c-4 0-8-2.4-9.6-6.2a10 10 0 0 1 5.6-13c3.3-1.4 6.8-.3 9.8 1.2V1m-9 9.5c-4.2 1.9-4.6 8.3-.7 10.6 3.5 2.7 9 .2 9.5-4.1 1-4.8-4.6-9-8.9-6.5zm-87 3.4C-1.1 9.7 1.5 4.4 6 3.6c2.8-.8 5.3.8 7.4 2.4 2-1.3 4-3 6.6-2.5 4.5.2 7.8 5 6.6 9.2-1.7 6-6.6 11.1-12.4 13.3H13A20.4 20.4 0 0 1 .7 13.9zm58.1-.8c1.8-6.6 10.8-9.2 15.8-4.7 5.2 4.3 3.2 11.7 3.5 17.6h-3.5v-2.1c-1.8.9-3.7 1.7-5.8 2.1h-.1c-6.6.3-12.1-6.6-9.8-13m6.5-2.5c-4 2-4.4 8.3-.6 10.6 3.8 3 10-.3 9.7-5.1.2-4.5-5.3-7.8-9.1-5.5zm38.5.3c3.5-6.3 13.7-6 17 .4 3.7 6-1 14.5-8.1 14.8h-.2c-7.6.4-13-8.9-8.7-15.2m6.3-.6c-4.3 1.4-5.5 7.7-2 10.5 3.4 3.3 9.6.9 10.2-3.7 1-4.4-4-8.6-8.2-6.8zm20.3-3.5c5.8-2.4 13 2 13.3 8.3a10 10 0 0 1-9.7 11 10 10 0 0 1-3.6-19.3m.9 3.7c-4.3 1.8-4.7 8.5-.7 10.8 3.8 2.8 9.8-.5 9.5-5.2.2-4.3-5-7.6-8.8-5.6z"></path>
  </symbol>
  <symbol  viewBox='0 0 98 33' id='coca'>
    <g fill="#91a8c9"><path d="M11.6 4.7c2.7-2 6-4 9.5-3.7 3 1.1 1.5 5.8-1.2 6.4-3-1.8 5-5.1.4-5-4.3 1.1-7 4.9-9.7 8.1-3 4.2-5.9 9.1-5.8 14.5-.1 3.3 3.2 5.4 6.2 5.1 7.4-.5 14.4-4.4 21.9-3.3a17 17 0 0 1 8.8 4.7c-3.5-.7-7.4-2.5-10.6.3-3.8-4-9.9-3-14.7-1.5-4.1.9-9 2.9-13 .2-3-2-3.3-6.2-2.6-9.4A29.5 29.5 0 0 1 11.6 4.7zm40.8 5.8C56 6.3 60.3 2 66 1c2.7.5 5.4.2 8.2 0 3.2.6 5.8 2.6 8.6 4l-2.4 2.7c-3.4-2-6.6-4.5-10.5-5.1-.6 4-2.2 8.4-5.9 10.5-1 .7-2 .5-3 0-.4-5 4-8.2 7-11.2-5.2 1.4-9 5.6-12.3 9.8-3 4.2-6 9-6.5 14.3-.4 2 1.7 4.3 3.8 3.2a14 14 0 0 0 7.2-11.5c-2.9 0-4 2.8-4.8 5l-4.1 3c1-3.9 2.9-9 7.6-9.5 2.4 0 2.3 3.2 1.7 4.8-1.5 4.6-4.9 9.2-9.7 10.7-3.4 1.1-6.2-2.5-5.9-5.7.4-5.9 3.9-11 7.4-15.5m9.2 2.3c4.4-.7 6.6-5.4 7.2-9.4a12.8 12.8 0 0 0-7.2 9.4z"></path><path d="M84.4 4.4C86 3 88 1.1 90.6 1.3c.3 1.7 0 3.3-.5 5l7.3-4.4a18.6 18.6 0 0 1-10 7.4c-2.8 5.3-7.8 9-12.2 13-1.4 2-1.8 4.6-2.2 7 2.8-.8 3.9-3.7 5.4-5.8 2-3 4.2-5.7 7.4-7.3 2 .4 4 .5 6 .5-2.3 4.2-5 8.2-7 12.6 2.7-1.5 4.3-4.1 6.5-6-2 3.5-4.5 8-8.9 8.6l-1.2-2c-1.4.7-2.9 2.8-4.6 1.6l-1-2.3c-1.5 1-3 3.6-5 2.3-2.7-2 1.3-5.8-.4-7.7-3.3 2.6-5 8.2-10 8-2.2-1.6-1-4.6-.1-6.6 2-3.8 4.6-7.8 9-9 3.2-.2 1.6 3.6 2 5.6h.8c3.2-6.4 7-12.6 12.5-17.4m-.2 3.3L86 6.6l3.4-.4.6-4c-2.2 1.6-4.5 3.1-5.8 5.5m-1 1.2A58 58 0 0 0 76 20.3c3.7-2.7 6.7-6.2 9.8-9.4l-2.6-2M69 22.9c.6-1.7 1.3-3.5 1.2-5.4-3.5-.2-4.2 4.2-1.2 5.5m10.7 6.4c4-2.8 6-7.6 8.2-11.9a15 15 0 0 0-8.2 12m-17-.3c2.8-.7 4.3-3.2 5.8-5.4l-3-2.5a15 15 0 0 0-2.8 7.9zm-43.5-20c1.3-.9 3.7-1.1 4 .9-.1 1.6-.3 3.2-.7 4.8 3.5-2 6-7.2 10.4-6 1.6 1 1 3.4 1.7 5 1.3-2.1 3-4.3 5.4-5.1 2-.1 4 .2 6 .2-2.4 4.2-5 8.2-7 12.5 2.6-1.4 4.3-3.9 6.4-5.7-1.8 3.5-4.5 7.2-8.4 8.6l-1.6-2c-1.4.8-3.2 2.8-4.9 1.3l-.5-2.8c-2.1 1.6-5 4.6-7.8 2.7-2.3-2.6 0-6 .8-8.8-3.4 3.1-5.2 8.3-10 9.5-2.7-.2-2.5-3.3-1.9-5.2 1.4-4 4.3-7.8 8-10m.2 2.1c-1.6 1.9.6 2.8 1.9 3.8.4-1.8.8-3.5 1-5.3a7 7 0 0 0-3 1.5m14.5 10.5c4.6-2.5 6.2-7.9 8.6-12.1a18.3 18.3 0 0 0-8.6 12M30 10.8c-2.1 3.3-5.5 6.6-5 10.8 4.1 1.3 6.2-4.5 8.9-6.8-1.2-.7-5.6-1-2.3-2.9l-1.6-1m-12.6 2.7c-1.4 2.5-3.1 5.1-2.7 8.1 2.7-1 4.3-3.5 6-5.8l-3.3-2.3zM48 9h3l-1.5 2.7h-2.9L48.1 9z"></path></g>
  </symbol>
  <symbol  viewBox='0 0 117 49' id='disney'>
    <g fill="#90a8c9"><path d="M15.2 0h.5c6.8 7 7.8 17.7 5.4 26.7-1.3 4.3-3.6 9-8.2 10.4-2.5.5-4-2.2-5.4-3.8-1.4 0-3 .1-4.3-.2-3-2.7-3.2-7.2-2.9-11 .8-6.9 3-14.5 9.1-18.6A39.6 39.6 0 0 0 3.2 29c.1 2 2 2.5 3.6 3 0-5.5-1.6-11.6 1.7-16.4 1-1.6 3.8-3.6 5-1.1 2.5 5.9-.6 12.2-4 17 1.3.8 2.6 2.6 4.2 1.4 3.2-2.2 4.3-6.2 5.1-9.7 1.3-7 1.3-15.1-3.1-21.1l-.5-2m-6 28.2a19 19 0 0 0 2.1-13.8c-2.2 4.3-2 9.2-2 13.8zM41.6 7.7C41.3 3.6 45.9 3 49 3c6.4.2 12 4.2 16.4 8.6 4.6 5.2 8.2 12.8 4.8 19.5-2.3 5.2-8.7 7-14 5.6L54 38.9c-1-6-8-8.3-8.3-14.5A22 22 0 0 1 53 20c.2-2.8.3-5.6 1.5-8.2 1 2.5 1.1 5.2 1.2 7.9 3.3 0 7.8.6 8.9 4.4.8 2.3-1.3 4.2-3.5 4.3l1.7-3.3a51 51 0 0 0-7.1-2v10.4c3.7.6 7.9.6 10.7-2.2 3.8-3.6 2.5-9.7 0-13.7C61.6 10 52.4 4.3 43 6l1.5 2.3-3-.7M46.6 25c.8 3.3 3.5 5.4 6.2 7.3l.2-8.9-6.4 1.6zM72.1 8c1.6-.7 3.4-2.4 5.3-1.6 1.5 1.1 3.7 2.3 3.1 4.6-.7 4.4-4.9 7.1-9.2 7-.6-2.9-1-5.7-.5-8.6l2 1.6-1.3 1.1.8.7 2-3L72.1 8m1.6 7.2c3-.3 6.6-2.7 5-6.2-2.4 1.4-4 3.6-5 6.2zM27 16.4c2 6.2 2.6 12.8 2 19.3a11.9 11.9 0 0 1-2-5.3h-2.7l-1.6 5.9c-2.4-2.4-1-5.8-1-8.7 2-3.6 3.1-7.7 5.3-11.2m-.7 7c-1.1.6-1.7 3.4-.1 3.8 1.4-.5 1.8-3.5.1-3.8zm3.8 3.6c.5-3.5.7-7.3 3-10.2.5 4.4-1 8.8-1.3 13.3l4.4-2c0 2.9-1.7 5.3-4.3 6.6-2-2-2.3-5-1.8-7.7z"></path><path d="M34.6 17.6l4 3.1c1.4-1.3 2.8-3 5-3.2L41 20.9l1.5.1-.3-1.4 2.2.3c0 2.8-1.8 4.5-4.4 5-.6 4.9.1 9.8-.7 14.6-4-4.3-2.3-10.6-1.5-15.8a7.2 7.2 0 0 1-3.3-6.1zM93 17c3 3.8 4 9 3.4 13.9-.2 1.6-1.4 2.6-2.2 3.9-1.8-2.8-3-6-4.2-9-.2 3.3-.2 6.7-.9 10-3-4.5-1.2-10.5.4-15.3 2 3 3.3 6.4 4.9 9.6 0-4.4-1.3-8.7-1.4-13.1zm-19.2 2.3c2.6 4.9 1.3 11 1.4 16.3l-1.8-1.3c-.7-5-.5-10 .4-15z"></path><path d="M77 26.7c-3.3-5.6 7.9-9.6 10.1-4.6-3 1.2-6.4 1-9.4 2.5 2.5.9 5.5.5 7.7 2 2.7 2.9 1 8.8-3.4 8.6-3.5.3-5.3-3.3-5.3-6.4 2.4-1 5-.7 7.4.2l-1.7 2.1-5.2-1.6c1.2 4.4 6.4 1.9 8.5-.4-2.7-1.6-5.8-1.8-8.8-2.4zm20.2-6c2.6-.4 5.1-1.3 7.7-1l1.5 2.8c-2 .6-4.4.3-5.9 2 1.5.9 5 .5 3.6 3.1l-3.9.7c0 .6-.4 2-.5 2.7a51 51 0 0 1 4.8-.6c1 3.3-3.3 4.6-5.7 5.5-2.3-2.8-1.3-6.3-.7-9.5l1.4-2.7-2.3-3zm8.8 9.4a20 20 0 0 1 4.2-10.7c-.7 3.8-1.4 8-4.2 10.7zm.4 0c3.4-2.5 5-6.6 8-9.5a10.5 10.5 0 0 1-5.5 16c-1 4.1-1.6 8.3-2.3 12.4h-.6c-3.5-5.9 1.3-12.6.4-19m8.3-6a27 27 0 0 0-4.4 8.6c3.5-1.5 5-5 4.4-8.7z"></path></g>
  </symbol>
  <symbol  viewBox='0 0 136 28' id='facebook'>
    <path fill="#91a9ca" d="M5 2C7.3 0 10.4.9 13.1.7V5c-1.2 0-2.5.2-3.7.4C9 6.7 9 8 8.9 9.3H13l-.5 4.4H9V27H3.7V13.8H1V9.3h2.7C3.8 6.8 3.2 4 5 2zm57 0l5.4-.9v8.4c3-.4 6.7-1.2 9.2 1 1.7 2.1 1.2 5 1.3 7.5 0 2.9 0 6.7-3 8.1-4 1.8-8.6.9-12.8.4V2m5.3 12v8.8c1.7-.3 4.3.4 5-1.7.2-2.5 0-5-.2-7.4-1.6 0-3.2 0-4.8.3zm47-12l5.4-.9v16l5-7.9h5.9l-5.4 8.7 5.4 9h-5.8l-5-8.1v8.1h-5.5V2zM15 9.3c3.9.4 9.5-1.3 12 2.7 1.4 4.8.4 10 .7 15-1.8 0-3.7.2-5.3-.7-2 .4-4.2 1.3-6.4.6-4-1-4.7-8-.6-9.5 2.2-.6 4.6-.4 7-.5l-.4-2.8c-2.5-.3-5-.3-7.5-.3l.5-4.5m3 11.6c-.6 3 2.6 2.5 4.2 1.7v-2c-1.4 0-2.8 0-4.2.3zm12-7.7c2-4.9 8.3-4.6 12.6-3.5.8 1.1.2 2.9.4 4.3-2.5-.1-5.5-1.3-7.8.2a16 16 0 0 0 0 7.6c2.1 1.8 5.3.4 7.8.4a83.5 83.5 0 0 1-.1 4.5c-4 .5-9.4 1.4-12.2-2.4-1.9-3.3-1.5-7.6-.7-11.1zm17.2-3c3-1.7 7.2-1.6 10.3 0 3.1 2.1 2.4 6.3 2.6 9.5H49.9c.2 1 .6 1.8 1 2.7 3 .7 6 0 8.8-.2v4.4c-3.9.4-8.1 1.3-11.8-.5-2.5-1.4-3.2-4.5-3.2-7.2 0-3-.2-6.8 2.6-8.6M50 16l5.3-.2c-.7-1-.7-3-2.3-2.8-2-.6-2.8 1.5-3 3zm33.6-6.4c3.5-1.1 8.3-1.1 10.7 2.1 1.6 2.8 1.1 6.2 1 9.2-.2 8.3-15.4 8.3-15.6 0-.3-4-.8-9.7 3.9-11.3m2 4.6c-1 2-.6 4.5-.5 6.7.3 2 3.5 2.1 4.6.7.5-2.4.5-5 0-7.3-1.1-1-3.1-1.3-4.2-.1zm15.9-4.8c3.7-1 9-.7 10.7 3.3 1 3.1.8 6.6.3 9.8-1.5 5-8.3 5.4-12.3 3.5-3.7-2-3.2-6.7-3.1-10.2-.1-2.8 1.5-5.7 4.4-6.4m1.3 5c-.3 2.6-1.7 8 2.1 8.1 3.6.2 2.4-4.4 2.6-6.6.4-2.6-3.7-3.3-4.7-1.5zM131.9 25c-.2-2.6 3-2.1 4.1-.8v2c-1.4.7-4.3 1.3-4-1.2z"></path>
  </symbol>
  <symbol  viewBox='0 0 98 26' id='gilette'>
    <g fill="#91a9ca"><path d="M24.8 7.3c-2-2.5.2-6.4 3.2-6.4 3-.3 3.6 3.2 5 5l.3-4.4H40l-4 22.6h-6.7l3-16.8-1.2-2c-.1 3.2-4.6 4.4-6.4 2zm13 16.8l4-22.6h6.6C47.6 5.7 47 10 46 14.1c2.2-3.3 5.9-6 10-5.1 2.7.1 4.6 2.1 6.2 4.1l.5-3.1c3.6 0 2.5-4.4 3.4-6.7h6.6a307 307 0 0 0-1.1 6.6c3.9.4 2.9-4.2 3.7-6.6H82l-1.1 6.3H83l-.6 3c3-3.5 8.3-5 12.4-2.5 2.7 1.6 3 5 3 7.7L87 18c1 .8 1.3 3.6 3 2.2 2.2-1.4 4.7 0 6.9.2-1.6 2-3.5 4-6.2 4.5-3.6 1-8-.6-9.3-4.2-.6-2-.5-4.1-.9-6.1-1.6 3-1.7 6.4-2.3 9.6h-6.7l1.6-9-2.6.1-1.5 8.9h-6.7l1.6-8.9-1.6-.1L62 18H51.5c.9 1 1.8 3.6 3.6 2 2-1 4.3.1 6.4.4-2.3 3.3-6.4 5.7-10.6 4.6-3.1-.7-4.9-3.6-5.8-6.5l-.6 5.6h-6.8m50-8.8h4.7c-1-2.8-3.5-2-4.7 0zM5 5c5.1-4 14-3.4 17.1 2.9l-6.4 2.6C14.3 9.7 12.8 8 11.1 9c-2.8 1.4-3.4 5.2-2.7 7.9 1 2.5 4.6 2.4 5.8 0l-3.3-.3.9-4.7h9.7c-.6 3.4-1.3 6.7-1.8 10.1-4.8 2.7-11.4 4-16 .4C-1.4 17.9-.4 9 5 5z"></path><path d="M21 24c1-4.7 1.8-9.5 2.6-14.3h6.6L27.8 24h-6.6z"></path></g>
  </symbol>
  <symbol  viewBox='0 0 115 37' id='google'>
    <path d="M13.4 0h3c3.1.4 6 1.9 8.6 3.6l-2.7 2.9c-4.3-3-10.6-3.6-14.6.2-5 4.2-4.4 13 1.3 16.4 5.5 4 14.5 1 15.7-6l-9.9-.1v-4h13.7c0 4-.3 8.3-3.2 11.3A14.7 14.7 0 0 1 5 25a15 15 0 0 1-5-9.4v-2.2A15 15 0 0 1 13.4 0zm78.4 1H96v27.2h-4V.8zm-55.4 9.6c6.7-2.4 14.2 4.4 12 11.3-1.5 7-11.6 9.3-16.2 3.8-4.7-4.7-2.1-13.5 4.2-15.1m.2 4c-3.8 2.2-3.4 8.5.6 10.1 3.6 1.8 8-1.7 7.4-5.6 0-3.9-4.8-6.7-8-4.4zm19.9-3.9C63.2 8 71.3 15 69 22c-1.6 6.8-11.3 9.2-16 4-4.8-4.4-2.7-13.3 3.5-15.3m.9 3.8c-4.2 2-3.7 8.9.6 10.4 3.7 1.5 7.7-2.1 7.2-6-.2-3.6-4.6-6.3-7.8-4.4zm15.1 0a8.6 8.6 0 0 1 12.2-2.7l.9-1H89c-.2 6.4.3 12.9-.2 19.2-.4 3.4-3.2 5.9-6.3 7h-3.7c-3.2-.4-5.6-2.6-7.2-5.3l3.4-1.4c1.6 1.6 3.4 3.8 6 3 3.3-.1 4-3.7 4.5-6.4-2.3 1-4.8 2.4-7.4 1.6-6-1.2-9.5-9.1-5.6-14m6.6-.5c-4.5 1.2-5.3 8-1.5 10.4 2.9 2 7 0 7.7-3.4 1.2-3.6-2.3-8.1-6.2-7zm20.2 10.6c-4-5.4 0-14 6.7-14.3 4.3-.5 7.7 3 9 6.8-4.2 1.9-8.6 3.5-12.8 5.5 2.4 3.3 6.9 3 9.7.3 1 .6 2 1 3.1 1.5v.2c-3.7 5.3-12.2 5.4-15.7 0m2.2-5.3c3-1.1 6-2.4 9-3.7-1.5-1.2-3.4-2.4-5.4-1.5-2.4.6-3 3.1-3.6 5.2z" fill="#91a9ca"></path>
  </symbol>
  <symbol  viewBox='0 0 146 32' id='microsoft'>
    <g fill="#91a9ca"><path d="M.2.6H15v14.8H.2V.6zm16.3 14.8V.6h14.8v14.8H16.5zM131.3 12c.6-2 .5-5 2.9-6 1.7-1 3.6-.5 4.8 1-2.6.7-4.4 2.4-4.6 5l5.1.1v-3l3.2-1v4h3.3v2.5l-3.3.1.1 8 3.2.6v2.3c-2 0-5.1.7-6-1.8-.8-3-.4-6-.5-9.1h-4.7v10.7h-3.2V14.8h-2.2v-2.4l1.9-.3zM40.6 7h4.6c1.9 4.6 3.8 9.3 5.5 14 1.8-4.7 3.8-9.3 5.7-14h4.4v18.5h-3.2V10.8c-2 4.7-3.5 9.8-6 14.3L50 26c-2.2-5-4.3-10.1-6.3-15.2v14.6h-3V7zm23.3 0c1.9-1.5 4.7.8 3 2.8-2 1.4-4.4-.7-3-2.8zm0 5.2h3v13.3h-3V12.1zm8.9.5c2-1.1 4.4-.7 6.6-.6l.3 3.1c-1.8-.3-3.9-1.3-5.5 0-3 1.9-2.3 7.9 1.7 8l4.3-.6c-.2 3.8-4.8 3.8-7.4 2.7-5-2.2-4.8-10.3 0-12.6zm9.1-.5h3.2l-.2 1.6c1.4-1 3-1.7 4.6-2.1l.4 3c-1.5.4-3.8 0-4.4 1.9-.8 2.9-.3 6-.4 9h-3.2V12zm11.5.4c3.8-2 9.7-.1 10.1 4.6 1.3 5-3.4 10-8.4 8.5-6.2-.8-7-10.5-1.7-13m1 2.8c-2.4 2.4-1.4 8 2.6 7.8 3.1 0 3.8-3.7 3.2-6.1-.4-2.7-4-3.6-5.9-1.7zm10.8-.3c.8-3.6 5.1-3.4 8-3.1l.2 2.8c-2-.1-4.6-1.4-5.4 1.2 1.7 1.3 3.8 2 5.4 3.5 1.3 1.8.6 4.5-1.4 5.5-2 1.2-4.5.6-6.8.3l-.2-3c1.8.5 6.4 2.3 5.7-1-2.2-1.7-6.4-2.6-5.5-6.2z"></path><path d="M120.1 12c4-1.3 9.1 1.4 9 6 1 5-4.2 9.1-9 7.5-6.4-1.3-6.3-12 0-13.4m.1 2.9c-3 2.2-1.7 9 2.8 8.1 3-.4 3.3-4.3 2.5-6.6-.7-2.1-3.5-2.7-5.3-1.5zM.3 17H15v14.7H.2V16.9zm16.3 0h14.8v14.7c-4.8.4-9.8-.8-14.6.3h-.4c.3-5 .2-10 .2-15z"></path></g>
  </symbol>
  <symbol  viewBox='0 0 97 27' id='netflix'>
    <path fill="#91a9ca" d="M.8.9h3.9l5.2 14.4V1h4v24l-4.4.5L5 12.1V26l-4 .5V1zm17 0h11.1v4h-7.1v5.3h5.4v4h-5.4v6l7.1-.5v4l-11.1.8V1zm13.7 4v-4h12.4v4h-4.2v18.3l-4 .2V4.9h-4.2zm15 18.3V.9h11.1v4h-7.1V10h5.4v4h-5.4v9.2h-4zM60.1.9h4v18.6l6.9.4v4l-10.9-.5V.9zM74.4 24V.8h4v23.7l-4-.4zm7.4-23h4.4l2.6 6.7L91.7.8h4.4L91 13l5 13.5-4.6-.6-3-7.6-2.9 6.9-4.2-.4 5.1-11.9-4.7-12z"></path>
  </symbol>
  <symbol  viewBox='0 0 147 19' id='tesla'>
    <path fill="#91a9c9" d="M0 0h24.6c-1.2 1.3-2 3-3.8 3.6-2.3.3-4.6.2-6.9.3V19h-3.7V3.9C6.6 3.8 2 4.6 0 .7V0zm32.6 0h23.2c-1.5 1.3-2.5 3.8-4.8 3.7-4.4.2-8.7.2-13 0-2.6.3-3.8-2.3-5.4-3.7zm33.3 0h21.5c-1.7 1.3-3 3.8-5.4 3.7-4.1.2-8.3 0-12.4 0v3.8h17V19H64.4c1.8-1.4 3.3-3.7 5.7-3.8 4.3-.2 8.7 0 13 0v-4H65.9V0zm31.4 0h3.7v15.3c5.7 0 11.4-.2 17 .1l-3 3.6H97.3V0zm27 0H147v.5c-1 1.3-2 3.3-4 3.2-4.7.2-9.3.2-14 0-2.2 0-3.1-2.5-4.7-3.7zM32.8 7.6c7.6-.2 15.2-.1 22.7 0-1.2 1.4-2.2 3.7-4.5 3.6-4.7.1-9.4.2-14.1 0-2-.2-2.9-2.3-4-3.6zm92.8 0h20.9V19h-3.7v-7.7h-13.5V19h-3.7V7.5zm-93 7.8c7.7-.4 15.4-.3 23.1 0L52.1 19H36.5l-4-3.6z"></path>
  </symbol>
  <symbol  viewBox='0 0 118 21' id='toyota'>
    <path fill="#91a9ca" d="M27.4 0h1.2c5.6.1 10.5 5.3 10 11 0 5.3-4.7 9.8-10 10H28c-5.3-.2-10-4.6-10.2-10a10.6 10.6 0 0 1 9.6-11m-1.2 4.3c-5.4 2.1-4.9 11.4 1 12.7 4.3 1 7.8-4 6.8-8-.5-3.4-4.4-6.3-7.8-4.7zM68.5 0h1.2c5.6.1 10.5 5.3 10 11 0 5.3-4.7 9.7-10 10h-.2C64 21 59 16.5 58.9 11a10.6 10.6 0 0 1 9.6-11m-1.3 4.3c-5.2 2.2-4.8 11.1.8 12.6 4.4 1.3 8.1-3.8 7-7.9-.5-3.4-4.4-6.3-7.8-4.7zM0 .8h16.7v3.6h-6.1v16H6.2v-16H0V.8zm39 0h5L48.8 9 53.6.7h5C56.3 5 53.5 8.9 51.2 13c-.2 2.5 0 5 0 7.5h-4.5c-.3-3.3 1-7-1.4-9.7L39 .8zm42 0h16.7v3.6h-6.1v16h-4.4v-16h-6.1V.8zm23.3 0h5.5l8.1 19.7h-5.1l-1.7-4.5h-8l-1.7 4.5h-5.2L104.4.8m0 11.9h5.4l-2.7-7.3-2.8 7.3z"></path>
  </symbol>
</svg>