<svg xmlns="http://www.w3.org/2000/svg" viewBox="0 0 147 19"><path fill="#91a9c9" d="M0 0h24.6c-1.19 1.25-2.08 3.08-3.84 3.62-2.27.31-4.56.21-6.85.27 0 5.03.02 10.07-.01 15.11h-3.71c-.05-5.04-.02-10.07-.03-15.11C6.55 3.8 1.96 4.64 0 .7V0zm32.57 0h23.21c-1.48 1.32-2.52 3.76-4.81 3.71-4.34.22-8.7.17-13.04.04-2.54.27-3.73-2.33-5.36-3.75zm33.3 0H87.4c-1.68 1.34-2.92 3.81-5.37 3.7-4.15.19-8.31.05-12.46.04-.01.94-.01 2.82-.01 3.76 5.7 0 11.41.01 17.11 0 .01 3.84-.01 7.67 0 11.5H64.25c1.8-1.37 3.31-3.67 5.78-3.75 4.31-.22 8.63-.05 12.95-.07v-3.95c-5.7.01-11.41.01-17.11.01-.01-3.75.01-7.49 0-11.24zm31.41 0h3.7c.02 5.09 0 10.18.01 15.27 5.7.02 11.4-.13 17.1.15-1.07 1.2-2.11 2.42-3.23 3.58H97.28c0-6.33-.01-12.67 0-19zm27.06 0H147v.46c-1.03 1.39-2.04 3.32-4.06 3.25-4.61.22-9.25.22-13.87 0-2.22-.06-3.2-2.48-4.73-3.71zM32.81 7.62c7.57-.21 15.14-.17 22.71-.03-1.25 1.44-2.27 3.73-4.52 3.65-4.71.1-9.43.17-14.13-.05-1.96-.23-2.83-2.31-4.06-3.57zm92.78-.09c6.96 0 13.93.01 20.9.02 0 3.82-.01 7.63 0 11.45h-3.71c.01-2.55 0-5.1 0-7.65h-13.49V19h-3.7c0-3.82-.01-7.65 0-11.47zm-93 7.9c7.69-.42 15.41-.29 23.11-.08-1.21 1.22-2.39 2.47-3.64 3.65H36.55c-1.35-1.15-2.66-2.36-3.96-3.57z"/></svg>