<svg xmlns="http://www.w3.org/2000/svg"  viewBox="0 0 118 21"><path fill="#91a9ca" d="M27.43 0h1.16c5.63.13 10.49 5.29 10.1 10.94-.11 5.35-4.81 9.82-10.1 10.06h-.55c-5.3-.16-10.05-4.61-10.21-9.97C17.4 5.5 21.97.46 27.43 0m-1.19 4.26c-5.42 2.19-4.91 11.42.89 12.72 4.37 1.04 7.85-3.92 6.83-7.91-.48-3.46-4.32-6.37-7.72-4.81zM68.48 0h1.2c5.61.15 10.47 5.29 10.07 10.92-.09 5.34-4.75 9.79-10 10.08h-.26c-5.46.04-10.46-4.51-10.59-10.03C58.5 5.48 63.05.47 68.48 0m-1.25 4.29c-5.24 2.22-4.83 11.11.73 12.63 4.46 1.29 8.15-3.82 7.06-7.9-.5-3.47-4.4-6.35-7.79-4.73zM0 .76C5.57.75 11.14.75 16.7.76c-.01 1.2-.01 2.41 0 3.62-2.05 0-4.09.01-6.13.01-.01 5.36 0 10.71-.01 16.07H6.17c-.01-5.36 0-10.71-.01-16.07-2.05 0-4.11-.01-6.16-.02V.76zm38.91 0c1.7 0 3.41 0 5.11-.01 1.6 2.76 3.18 5.52 4.77 8.28 1.6-2.76 3.18-5.52 4.78-8.28 1.7.01 3.41.01 5.11.01-2.47 4.11-5.24 8.05-7.56 12.25-.23 2.48-.06 4.96-.09 7.45-1.49-.01-2.98-.02-4.46-.01-.31-3.21.96-6.93-1.33-9.64-2.15-3.33-4.23-6.7-6.33-10.05zm42.17 0c5.55-.01 11.1-.01 16.65 0-.01 1.21-.01 2.42 0 3.62-2.05 0-4.09.01-6.13.01-.01 5.36.01 10.72-.01 16.07-1.46 0-2.92-.01-4.38 0V4.39c-2.04 0-4.09-.01-6.13-.01V.76zm23.27 0c1.82 0 3.64 0 5.46-.01 2.71 6.57 5.41 13.14 8.12 19.71-1.71 0-3.42-.01-5.13 0-.56-1.48-1.13-2.95-1.69-4.42-2.69-.01-5.38-.01-8.06 0-.57 1.47-1.13 2.94-1.69 4.42-1.71-.01-3.42-.01-5.13 0 2.7-6.57 5.41-13.14 8.12-19.7m-.04 11.93c1.85.01 3.69.01 5.53.01-.92-2.43-1.84-4.85-2.76-7.28-.92 2.43-1.84 4.85-2.77 7.27z"/></svg>