<svg xmlns="http://www.w3.org/2000/svg" viewBox="0 0 16 13" width="16" height="13"><path fill="#fbfcfd" d="M16 1.538c-.586.26-1.221.44-1.885.519A3.307 3.307 0 0 0 15.56.239a6.54 6.54 0 0 1-2.09.796A3.283 3.283 0 0 0 7.88 4.03 9.318 9.318 0 0 1 1.115.6 3.259 3.259 0 0 0 .67 2.252c0 1.137.58 2.144 1.46 2.729a3.232 3.232 0 0 1-1.484-.41v.04a3.291 3.291 0 0 0 2.631 3.223 3.386 3.386 0 0 1-1.484.054 3.293 3.293 0 0 0 3.066 2.28A6.595 6.595 0 0 1 .781 11.57c-.264 0-.522-.015-.781-.044A9.287 9.287 0 0 0 5.033 13c6.035 0 9.336-5.001 9.336-9.337l-.01-.425A6.612 6.612 0 0 0 16 1.538z"/></svg>