<svg xmlns="http://www.w3.org/2000/svg" viewBox="0 0 30 27" width="30" height="27"><path fill="#fff" d="M-.967 12.08L8.92 2.196c.785-.784 2.12-.726 2.977.13l1.275 1.276L1.734 15.037c-.702.702-1.864.668-2.656-.073-.78-.864-.799-2.129-.045-2.883zm21.892-.725a2.32 2.32 0 0 1-3.276.005 2.321 2.321 0 0 1 3.28-3.28 2.318 2.318 0 0 1-.004 3.276zm-4.478-9.973l-1.572 1.572a1.83 1.83 0 0 0-.164.19l-.036.039c-.02.02-.046.032-.071.048-.012.01-.021.025-.038.032L2.331 15.498a2.81 2.81 0 0 1-.207.188c-.022.02-.049.036-.07.057-.052.037-.1.075-.15.107-.03.02-.062.038-.09.057-.05.029-.094.06-.142.085-.034.019-.07.032-.104.051-.046.02-.09.044-.137.066l-.11.04a1.343 1.343 0 0 1-.14.049 1.93 1.93 0 0 1-.115.035l-.137.033c-.04.01-.08.016-.122.024-.045.007-.09.015-.139.02l-.12.01-.105.008 9.82 9.82a2.116 2.116 0 0 0 2.988 0l13.981-13.982a2.115 2.115 0 0 0 .002-2.988L19.436 1.38a2.114 2.114 0 0 0-2.989.002z"/></svg>